<svg width="113" height="67" viewBox="0 0 113 67" fill="none" xmlns="http://www.w3.org/2000/svg">
<path d="M0.984131 59.9816C1.13732 58.8582 1.10666 57.7173 1.18289 56.5862C1.5953 50.4658 1.93076 45.5508 2.60731 39.4102C3.07566 35.1594 3.53305 30.7589 4.92614 26.6815C6.3263 22.5835 8.64089 17.7716 12.2222 15.1454C13.8331 13.964 15.1035 14.3347 16.5037 15.7416C18.5665 17.8143 20.1179 20.6151 21.3153 23.253C23.8428 28.8208 25.5235 34.9733 27.2035 40.8347C28.9671 46.9878 30.2446 53.2903 31.3939 59.5841C31.687 61.1888 31.9612 62.8004 32.0813 64.4288C32.1126 64.8526 32.2664 65.9685 31.9405 65.6958C31.4226 65.2624 31.0022 64.2682 30.6734 63.7248C30.0926 62.7649 29.4974 61.8148 28.9095 60.8594M6.25123 53.5551C8.45516 51.6879 12.4544 50.1505 14.8226 48.9589C16.5882 48.0704 32.226 40.4578 33.9769 39.5409" stroke="#FBFAF3" stroke-width="1.82031" stroke-linecap="round"/>
<path d="M35.0212 21.5055C34.9742 24.1766 34.8943 26.4989 35.1537 29.2736C35.3781 31.6742 35.5139 34.113 36.1558 36.4371C37.1222 39.936 38.0268 42.9856 41.6216 39.7332C41.9831 39.406 42.3052 39.0426 42.6007 38.6557M42.6007 38.6557C43.3887 37.6238 43.9878 36.4249 44.6444 35.3025C45.268 34.2363 45.7293 33.0802 46.1847 31.932C46.2529 31.76 46.3632 31.2875 46.2013 31.3771C45.762 31.6203 45.5276 32.1219 45.1827 32.4868C44.2731 33.4491 43.5873 34.1482 42.6071 35.0375C41.7945 35.7748 41.269 36.1982 40.4125 36.8346C40.1487 37.0306 39.8774 37.2162 39.6092 37.406C39.3973 37.556 38.8314 37.686 38.9963 37.8864C39.0498 37.9513 40.4671 37.831 40.5119 37.8367C41.2818 37.9339 41.9637 38.2478 42.6007 38.6557ZM42.6007 38.6557C42.823 38.7981 43.0399 38.9519 43.2531 39.112C45.3783 40.7081 47.1614 42.9313 49.605 44.0727C51.6114 45.0099 54.4273 44.7245 55.518 42.582C56.1261 41.3875 56.3875 39.7846 56.2188 38.4281M56.2188 38.4281C56.21 38.3572 56.2 38.287 56.1888 38.2176C56.1783 38.1526 56.0658 37.988 56.0812 38.052C56.1113 38.1777 56.1586 38.3045 56.2188 38.4281ZM56.2188 38.4281C56.3664 38.7308 56.5918 39.0138 56.8348 39.2114C57.4339 39.6988 58.1951 39.997 59.0024 40.1393M59.0024 40.1393C60.1655 40.3443 61.4245 40.2256 62.4331 39.8822C65.175 38.9488 66.2183 35.6281 65.7291 32.9837C65.375 31.0693 63.8505 28.8499 61.7871 28.5117C58.6713 28.0009 58.022 32.3262 57.9114 34.4744C57.8382 35.8959 57.7494 38.8272 59.0024 40.1393ZM59.0024 40.1393C59.2692 40.4187 59.5968 40.6246 59.9983 40.7269C62.8626 41.4571 65.6052 37.5185 67.0376 35.6918C69.8213 32.1418 72.3496 28.3946 75.1949 24.8926C76.3497 23.4714 77.3603 23.1164 78.6152 24.7684C79.9143 26.4787 80.5912 28.8323 80.6729 31.022M80.6729 31.022C80.6854 31.3549 80.684 31.684 80.669 32.0065C80.5738 34.0545 79.4414 35.0303 77.5055 35.3025C76.3302 35.4678 77.1331 34.6542 77.5772 34.2042L77.5966 34.1845C78.6451 33.1214 79.6922 32.1016 80.6729 31.022ZM80.6729 31.022C81.5993 30.0023 82.4664 28.9295 83.2197 27.7167C84.8897 25.0282 86.0777 21.956 86.6978 18.7685M86.6978 18.7685C87.7188 13.5209 87.2007 7.96078 84.7601 3.28613C84.5968 2.97334 83.3969 0.584686 83.9319 2.43313C85.2414 6.95658 86.1155 11.5079 86.4992 16.2053C86.5688 17.0568 86.636 17.9116 86.6978 18.7685ZM86.6978 18.7685C86.9721 22.5687 87.1414 26.412 86.9464 30.2011C86.9036 31.0329 86.8338 31.8751 86.7227 32.7079M86.7227 32.7079C86.6734 33.0783 86.6158 33.4469 86.5489 33.8119C86.5315 33.9067 86.528 34.0084 86.4827 34.0934C86.3808 34.2844 86.5029 33.659 86.5489 33.4475C86.6026 33.2007 86.6606 32.9541 86.7227 32.7079ZM86.7227 32.7079C87.6137 29.175 89.3467 25.7037 91.2445 22.6484C91.7387 21.8528 95.9424 14.9916 97.5551 16.8347C98.0997 17.4571 98.3665 18.4209 98.5903 19.1618C99.1766 21.1035 99.5204 23.1105 100.114 25.05C101.063 28.149 102.862 32.3984 106.309 33.4143C107.886 33.8792 110.147 33.7583 111.692 33.1659C111.993 33.0503 112.146 32.8918 111.94 32.6856" stroke="#FBFAF3" stroke-width="1.82031" stroke-linecap="round"/>
</svg>
