<?xml version="1.0" ?><svg xmlns="http://www.w3.org/2000/svg" width="124.06556mm" height="321.82626mm" viewBox="0 0 124.06556 321.82626">
    <path d="m 53.903834,575.78549 c 0.5497,-8.20127 6.2199,-26.51743 27.2374,-26.36122 21.017496,0.15622 25.747496,9.84152 22.406096,24.18723 -3.3414,14.34572 -11.846696,21.03691 -11.846696,21.03691 11.072996,1.73066 8.786796,9.43292 8.751196,16.12916 12.6586,6.4792 24.7529,30.63869 14.8647,44.94659 0,0 7.7835,69.06633 8.2895,76.45071 0.5061,7.38439 -1.7803,10.67818 -12.6145,11.53736 -10.8342,0.85918 -56.557796,1.3148 -64.368796,0.91125 -7.811,-0.40355 -9.6047,-5.36337 -9.2141,-13.18712 0.3905,-7.82375 7.6985,-76.77864 8.4613,-84.67234 0.8586,-8.886 12.8191,-33.07592 13.2829,-32.55668 0,0 -5.2074,-4.03554 -4.0068,-9.30779 1.2006,-5.27223 11.9914,-8.76103 11.9914,-8.76103 0,0 -12.147,-7.60158 -13.2336,-20.35303 z" transform="translate(204.24039,494.40889) translate(3210.9292,-526.25391) translate(-3417.4795,-450.03122)" color="#000" overflow="visible" fill="#fff" paint-order="fill markers stroke"/>
    <path d="m 57.037944,563.48395 c 5.13527,-7.01794 13.65601,-12.80345 20.38893,-13.9674 6.73292,-1.16393 20.95953,3.38918 23.774406,6.70983 2.81489,3.32068 1.29334,23.96366 -1.711756,28.14018 -3.00509,4.17653 -15.25367,15.50792 -22.5952,14.61783 -7.34153,-0.89008 -15.55796,-6.09361 -19.05756,-10.78364 -3.4996,-4.69004 -4.41253,-17.87004 -0.79882,-24.7168 z" transform="translate(204.24039,494.40889) translate(3210.9292,-526.25391) translate(-3417.4795,-450.03122)" fill="#ffe5d5" paint-order="fill markers stroke"/>
    <path d="m -3324.4893,146.02697 c -4.1095,0.0213 -8.7214,1.31362 -8.7214,1.31362 l 2.8752,18.93631 c 0,0 10.4592,-3.68811 12.0189,-5.69733 1.5598,-2.00925 2.3241,-11.55981 -1.6211,-13.70666 -1.1711,-0.63734 -2.8165,-0.85492 -4.5516,-0.84594 z m -28.5698,1.91926 1.0707,17.11989 9.6945,0.60565 -0.4279,-16.84445 z m 47.8017,23.75308 -18.9616,7.54165 3.1502,11.89023 20.8266,-8.22998 z m 7.5845,25.01914 -21.347,3.46801 0.1835,9.08265 16.5452,-5.55987 z" fill="#edda5d" paint-order="fill markers stroke" transform="translate(204.24039,494.40889) translate(3210.9292,-526.25391)"/>
    <path d="M-3333.2412 147.06567l-8.2879 1.5136-.1225 18.11052 10.3984.0827zm-21.2592 1.66501c-5.4438 1.76149-6.8199 1.0457-7.2481 5.83479-.4282 4.7891 6.025 11.20218 7.86 11.14712 1.8348-.055.5503-16.87184.5503-16.87184zm38.8751 13.44518l-15.2915 5.11958 6.4223 11.97291 19.757-7.59643zm14.8327 21.16615l-19.5424 7.95403.2444 9.02788 20.7967-2.3673zM-3341.8551 186.01967l2.2318-10.8657-4.6099-8.00113 12.1101 1.28413-4.7928 7.30967 7.9392 9.74619-7.0978 8.95599z" fill="#ab3232" paint-order="fill markers stroke" transform="translate(204.24039,494.40889) translate(3210.9292,-526.25391)"/>
    <path d="m -3357.5617,164.85851 c 4.0739,0.2005 8.6571,2.1196 8.6571,2.1196 l 4.1376,14.5796 7.7659,12.77506 5.9517,-5.75736 5.4107,-11.14237 6.461,32.22406 7.9887,-1.46082 c 0,0 -1.0185,25.7506 -1.305,30.24764 -0.2864,4.49702 -3.7874,19.93596 -17.8234,20.39424 -14.0359,0.45829 -25.5256,-10.76999 -26.9897,-23.14403 -1.464,-12.37406 -5.4425,-56.51383 -4.233,-61.21138 1.2094,-4.69754 3.9784,-9.62424 3.9784,-9.62424 z" fill="#ababab" paint-order="fill markers stroke" transform="translate(204.24039,494.40889) translate(3210.9292,-526.25391)"/>
    <path d="m -3365.7095,176.11541 c -3.0268,5.23702 -11.585,49.59779 -10.5667,52.61833 1.1911,3.5332 -2.9918,59.4641 -2.6099,61.58373 0.3819,2.11963 2.3552,3.43723 5.5062,3.23672 3.1509,-0.2005 55.9845,1.28897 60.2494,1.1171 4.2649,-0.17187 16.6457,-2.72116 17.887,-5.5282 1.2413,-2.80707 -0.7957,-24.26113 -0.7957,-24.26113 l -4.0102,-41.24679 -1.9097,-16.89974 -10.503,1.8332 0.7956,20.13645 c 0,0 3.151,31.16424 -20.1786,28.98733 -23.3295,-2.17691 -27.7535,-22.59981 -27.4989,-27.89888 0.2546,-5.29905 -1.2731,-41.67643 -1.4323,-45.19959 -0.1591,-3.52317 -4.9332,-8.47853 -4.9332,-8.47853 z" fill="#414650" paint-order="fill markers stroke" transform="translate(204.24039,494.40889) translate(3210.9292,-526.25391)"/>
    <path d="m -3391.6504,42.866225 c 1.5508,-3.070516 7.3664,-4.722098 9.1499,-8.18806 1.7835,-3.465963 4.2648,-3.675301 4.0063,-1.046772 -0.2585,2.628556 -2.6622,6.513248 -1.4474,10.258346 1.2148,3.745098 0.5428,11.374887 -1.5509,12.840361 -9.799,4.552632 -14.1263,-5.447375 -10.1579,-13.863875 z" fill="#f5e8a7" paint-order="fill markers stroke" transform="translate(204.24039,494.40889) translate(3210.9292,-526.25391)"/>
    <path d="m 112.67563,801.21474 c -2.0546,-0.0563 -9.0609,-3.34031 -10.7674,-5.04676 -1.0745,-1.07453 -1.343,-2.77637 -1.3436,-8.51419 -0.1317,-13.2821 -0.989196,-28.21033 -2.957796,-40.4904 -4.8903,-0.58793 -6.3585,-0.64536 -13.4489,-0.79185 -12.8294,-0.2651 -12.8927,-0.25799 -13.139,1.47455 -0.136,0.95757 0.3675,8.69248 1.1191,17.1887 1.6876,19.07946 1.9706,30.41533 0.7826,31.35305 -2.9612,1.03913 -16.5655,6.35849 -16.8896,3.13866 0,-0.79764 7.5335,-4.56915 9.1528,-4.5822 2.4042,-0.0195 2.721,-3.19999 2.1487,-21.5783 -0.3184,-9.10423 -0.562,-18.20408 -1.5352,-27.26089 -5.1258,-0.96319 -10.0871,-0.69807 -15.348,-0.50726 -16.8226,0.61014 -14.3392,-7.96966 -14.3782,-17.82105 0.9719,-31.76979 2.8688,-38.5044 5.5168,-65.57582 0.6616,-4.03497 0.6392,-4.15334 0.8362,-7.70296 -3.924,3.90933 -8.7477,4.52047 -14.0079,2.28203 -7.8451,-3.47032 -11.7634,-8.41918 -15.8805,-20.05757 l -2.211,-6.25044 -0.2401,3.31703 c -0.2899005,4.00411 -2.4934005,5.78072 -4.5809005,3.69331 -1.1273,-1.12735 -1.1573,-1.89061 -0.2703,-6.87377 0.5488,-3.0831 1.2603,-6.30887 1.5812,-7.16831 -0.1323,-5.08754 -3.5881,-8.48793 -4.3952,-13.85175 -0.6147,-4.48531 1.2587,-7.98454 8.1527005,-15.22762 l 4.6249,-4.85901 1.7057,-13.89233 c 3.1929,-24.9459 7.9818,-50.21299 11.7951,-74.18758 0.9264,-5.83948 2.3508,-7.60302 4.4474,-5.50643 0.8888,0.88879 0.8717,1.92038 -0.1069,6.47446 -8.2018,49.58106 -9.0775,58.8894 -13.8006,97.65558 0.3917,-0.24205 1.3006,-0.21439 2.0198,0.0617 1.0328,0.39627 1.2588,1.34118 1.0755,4.495 -0.1277,2.19632 0.1946,4.76127 0.7161,5.69985 2.2156,3.98707 -0.048,8.57239 -2.5802,5.22786 -1.0473,-1.38298 -1.111,-1.34728 -1.1344,0.63716 -0.013,1.1564 -0.4004,2.33461 -0.8594,2.6183 -0.459,0.2837 -0.6459,1.00757 -0.4152,1.60871 0.7237,1.88607 -0.3657,3.5254 -1.9986,3.00716 -1.307,-0.41487 -1.4356,-0.19118 -0.9972,1.73466 3.6069,15.84485 11.0033,27.18939 17.3315,27.60325 8.0033,0.52347 15.6561,-21.83606 18.4846,-28.76701 1.4934,-3.83197 3.3233,-7.23153 6.0983,-10.18516 l -1.636,-1.75598 c -2.1314,-2.28774 -3.1236,-6.2821 -1.6934,-9.57106 1.9872,-4.57 5.2486,-5.33698 9.412,-6.16973 l -3.4654,-3.05037 c -3.5867,-3.15709 -8.2526,-11.27806 -8.2526,-14.36343 0,-0.95325 -0.7145,-2.21554 -1.5879,-2.8051 -1.4522,-0.98038 -1.5191,-1.4306 -0.7828,-5.27185 0.4426,-2.30996 1.7473,-6.26654 0.8847,-8.98501 -1.8245,-5.75026 5.8119,-15.23787 10.3029,-16.08915 1.885,-0.3573 4.6363,-0.39158 7.2533,2.31907 1.3808,0 2.1606,-0.67309 2.9419,-2.53924 1.2257,-2.92799 6.6565,-8.09657 9.7417,-9.27135 8.6957,-3.31119 22.987296,-1.52679 24.759396,3.09139 0.7076,1.84382 -0.086,1.93068 -3.9961,0.43739 -4.880496,-1.86385 -13.133096,-1.87309 -16.311596,-0.0183 -1.2892,0.75228 -1.6408,1.12786 -0.7813,0.83461 0.8594,-0.29325 4.1025,-0.71288 7.207,-0.9325 5.0058,-0.35414 6.1309,-0.16136 9.942896,1.70372 6.9659,3.40805 9.9729,9.01964 5.4426,10.15668 l -2.0185,0.50661 3.3251,2.95076 c 3.5523,3.15245 3.6104,4.79976 0.169,4.79976 -1.9457,0 -1.9967,0.12182 -1.5165,3.62492 0.2733,1.99371 0.6531,5.93246 0.6531,6.85257 1.674,1.74346 0.4916,3.34105 -0.2445,4.08588 -0.1396,1.45472 -1.5232,5.49315 -1.5232,5.49315 2.6056,-0.36308 4.8811,4.29956 -1.4055,4.0316 -2.6402,3.77023 -5.410196,6.88612 -8.702596,10.23099 5.901496,0.57923 7.235296,6.09801 7.292096,11.73191 0,4.34007 0.1054,4.57539 2.6641,5.95338 3.3954,1.82849 10.3577,8.54427 10.3577,9.99086 0,0.60582 0.8789,3.0213 1.953,5.36771 3.8179,8.33918 4.589,23.92386 1.3546,27.37621 -1.2253,1.30783 -1.4496,2.09319 -0.8848,3.09826 0.4162,0.74045 1.0793,10.40909 1.4737,21.48588 0.7299,20.50057 1.2796,24.63515 5.3952,40.58361 2.4064,9.32503 2.2247,15.4503 -0.5897,19.88826 -5.8373,7.89561 -21.7576,5.18013 -21.5199,7.50625 0.4247,1.69184 0.9762,8.57261 3.7759,36.36533 0.5529,5.48906 1.2527,10.23548 1.5551,10.54761 3.5013,1.82599 19.1191,6.08918 15.3,8.78163 -4.2878,1.95256 -5.9125,0.59262 -10.5476,-1.54526 z M 96.373934,742.35329 c 0.2627,-5.05059 -4.6686,-30.48846 -2.7259,-31.88473 3.2344,-2.04959 4.5688,0.22494 4.5776,7.80258 0,1.98748 0.7054,7.76804 1.5626,12.84574 0.857096,5.07762 1.843296,10.84816 1.843296,11.02411 5.4324,-0.15806 14.7039,0.0702 18.034,-3.76782 2.8066,-3.23472 2.2618,-17.07777 -1.46,-19.19041 -1.0639,-0.56949 -2.1095,-1.7766 -2.3233,-2.68261 -0.2139,-0.90592 -0.2553,0.86663 -0.092,3.93903 0.052,3.47839 1.132,6.94074 -2.7906,5.6025 -2.1722,-0.75732 -2.2774,-1.00913 -2.2774,-5.45147 0,-5.25248 -1.1376,-5.51672 -1.9774,-0.45933 -1.2886,7.7596 -1.2653,7.72843 -3.9249,5.22974 -1.7182,-1.6141 -1.9206,-2.29844 -1.4837,-5.01645 0.2889,-6.48778 4.1088,-8.36782 4.5932,-12.81722 0.1113,-1.02132 0.9174,-2.42767 1.7915,-3.12522 1.2127,-0.9678 1.736,-2.65675 2.2083,-7.12815 1.0003,-9.46972 0.9447,-17.20323 -0.166,-23.04848 -1.3222,-6.95846 -1.3065,-8.2037 0.1034,-8.2037 1.4484,0 2.4387,1.87669 3.1003,5.8758 1.0264,6.20278 1.93,5.51187 1.5789,-1.20719 0.3514,-6.51562 -1.6809,-5.99936 -3.4917,-9.64701 -0.023,-1.66589 -1.2865,-2.88692 -2.5045,-2.41954 -1.0838,0.41589 -1.0928,0.722 -0.081,2.75105 2.1971,4.40414 -0.9061,5.29404 -4.6254,1.32634 -2.6034,-4.41619 -3.1128,-2.50119 -1.8273,1.17782 0.4358,2.92974 0.3073,3.81128 -0.6067,4.16201 -1.9302,0.74068 -4.247796,-1.07289 -4.818496,-3.77065 -0.2962,-1.40018 -1.2122,-3.28062 -2.0355,-4.17873 -1.1835,-1.2908 -1.5736,-3.17296 -1.8627,-8.98501 -0.3788,-7.61834 -2.5097,-17.89968 -3.7099,-17.89968 -0.351,6.0892 -4.2696,12.36027 -9.5712,13.28218 -2.1221,0 -5.4496,-3.66471 -7.4435,-8.19784 -0.32257,-2.43614 -10.797857,-19.81178 -7.1945,-19.99077 0.8516,-0.0383 0.5471,-0.36089 -0.8076,-0.85522 -2.9123,-1.06249 -3.8652,-0.15712 -6.0014,5.70149 -1.609,4.41281 -1.6761,5.30819 -0.9217,12.29297 2.7394,16.38349 -1.1293,35.04213 2.9583,50.8959 3.0852,15.63054 24.0381,26.71069 34.8349,15.6214 3.588796,-4.04403 4.736696,-7.83563 6.572696,-21.71042 1.278,-9.65763 1.4868,-10.3701 2.9765,-10.15696 1.4559,0.20837 1.6083,0.79959 1.6702,6.47967 0.1668,15.30474 -2.1719,23.71915 -8.104696,29.15977 -10.808,8.41816 -20.748,6.01722 -30.8698,1.00187 l 0.5316,14.60875 c 0.6684,18.36823 0.9693,20.37908 3.1223,20.85911 4.5718,0.59335 22.7296,0.72086 23.6387,0.15478 z m -30.186,-0.54535 c -0.2176,-11.52487 -1.1031,-23.08349 -2.3714,-34.53132 -0.6269,-5.52093 -1.2763,-7.64514 -3.4635,-11.32891 -4.4062,-7.42115 -5.0919,-11.57347 -5.1951,-31.45775 -0.075,-14.52031 -0.8769,-30.45126 -1.3521,-26.86929 -0.066,0.49394 -1.396,2.77925 -2.9566,5.07848 -2.6125,3.84894 -2.9773,5.10941 -4.6013,15.89986 -5.4749,41.93066 -7.352,61.72774 -6.5106,79.34827 0.3666,7.67827 17.8722,3.87284 26.4506,3.86066 z m 43.491596,-87.92536 c 2.2196,-0.97905 4.4294,-2.5158 4.9106,-3.415 1.0807,-2.01936 1.0455,-2.01936 -7.7153,0 -7.076896,1.62941 -7.706296,2.10475 -6.6011,4.98488 0.5952,1.55089 3.3928,1.0846 9.4058,-1.56761 z m 2.5039,-8.14721 3.4145,-0.0281 c -0.3769,-3.22657 -0.1659,-6.76175 -1.1557,-9.82272 -0.5859,-0.58598 -10.3207,4.46453 -13.288,6.894 -1.557496,1.27516 -2.020596,2.21492 -1.689396,3.42828 0.4426,1.62144 0.588696,1.6398 4.880196,0.6138 2.4332,-0.58176 5.9605,-1.07024 7.8384,-1.08555 z m -28.987196,-6.083 c 2.7376,-3.95113 2.7011,-4.76471 -0.3803,-8.45098 -1.5925,-1.90513 -3.132,-3.46391 -3.4213,-3.46391 -0.2891,0 -0.7627,1.89583 -1.0521,4.21295 -0.3751,3.00153 -0.1878,5.02339 0.6513,7.03174 1.4129,3.38133 2.2334,3.5122 4.2024,0.6702 z m 28.303296,-7.22707 c 2.0963,0 2.4573,-1.00288 1.444,-4.01207 -1.5769,-4.68267 -2.0181,-4.50686 -3.0869,-3.78616 -3.7386,1.71801 -13.075496,5.8438 -13.403396,6.15648 -0.3782,2.4439 0.6521,4.43799 1.4031,6.86681 5.088096,0.1851 7.424996,-3.59643 13.643196,-5.22506 z m -23.459896,-5.3199 c -0.013,-1.15633 -0.5456,-2.79129 -1.1823,-3.63314 -1.1435,-1.5123 -1.1778,-1.51011 -2.8693,0.18134 l -1.7119,1.71199 2.2324,2.33009 c 2.5294,2.6401 3.5672,2.46658 3.5311,-0.59028 z m -13.9561,-3.19186 c -0.9048,-0.90483 -1.6451,-2.32759 -1.6451,-3.16163 0,-0.83412 -0.3516,-1.73379 -0.7813,-1.99944 -1.0785,-0.66653 -0.9805,0.40113 0.4036,4.3943 2.0918,6.03487 2.0236,5.93838 2.8867,4.08731 0.6203,-1.33033 0.4424,-2.0142 -0.8639,-3.32054 z m 26.591396,-0.47324 c 3.1384,-1.50401 6.1555,-2.73456 6.7047,-2.73456 0.5494,0 0.9988,-0.31065 0.9988,-0.69036 0,-0.87319 -6.0102,-6.34138 -6.9699,-6.34138 -0.3931,0 -2.413696,0.8517 -4.490196,1.89255 -2.0765,1.04085 -4.7229,2.1289 -5.8811,2.41782 l -2.1056,0.52535 2.4963,3.81855 c 1.373,2.10023 2.7314,3.82488 3.0186,3.83261 0.2873,0.008 3.0901,-1.21657 6.228396,-2.72058 z m -20.579696,-2.10952 c 1.432,-1.43205 1.1262,-2.18765 -0.8856,-2.18765 -2.2204,0 -2.8917,0.58316 -2.3367,2.02967 0.5154,1.34314 1.966,1.41424 3.2223,0.15798 z m 3.4485,-5.72579 c 0.8699,-0.33385 0.952,-1.70653 0.4283,-7.16183 -0.7055,-7.35067 -0.216,-8.80343 2.4136,-7.16128 1.8681,1.16664 2.6369,3.89043 2.4473,8.67006 -0.1908,4.81166 0.3053,3.9569 1.6122,3.90869 4.753,-2.28907 7.3755,-4.55355 6.6377,-10.7151 -0.7532,-5.8837 -4.0216,-7.53217 -9.5008,-4.79198 -3.0899,1.59993 -6.3072,2.3696 -9.6745,2.99349 l -0.064,5.18685 c -0.035,2.85277 -0.2232,6.15371 -0.4174,7.33543 -0.3282,1.99725 -0.1631,2.14859 2.3443,2.14859 1.4835,0 3.1816,-0.1858 3.7735,-0.41292 z m -10.5317,-7.64257 0.183,-7.26558 c -2.1166,-0.64334 -4.2887,-1.8231 -6.5209,-1.86763 -1.2018,0 -1.2311,0.17853 -0.2576,1.56839 0.8038,1.14766 0.9964,3.161 0.7176,7.5049 -0.4131,6.43717 0.03,7.30332 3.7417,7.31785 1.9309,0.008 1.9553,-0.0758 2.1362,-7.25793 z m -9.9289,-2.6819 c 0.1382,-2.68269 0.014,-4.88011 -0.2752,-4.88315 -2.6108,-0.19461 -5.1095,3.08612 -5.2143,5.26935 0,2.19539 1.3252,4.89221 3.0575,6.22223 2.8303,3.01122 1.9898,-1.77203 2.432,-6.60843 z m 17.247,-9.71662 c 7.3954,-2.40836 13.5086,-6.0936 16.1163,-11.50824 -1.2151,-0.2928 -2.6998,-0.45974 -3.8529,-0.6218 -2.7093,-0.56226 -1.3213,-2.92855 -1.3213,-2.92855 0,0 -1.2845,0.12427 -2.5338,-1.09436 -1.4893,-0.93013 -1.8482,-0.82968 -3.3205,0.92922 -2.38,2.84339 -8.4046,4.66581 -12.1185,3.66575 -3.1588,-0.85056 -5.8374,-3.28587 -6.6837,-6.07658 -0.4764,-1.57118 -1.0365,-1.75793 -5.2712,-1.75793 h -4.738 l 0.4284,3.19368 c 0.5716,4.26144 5.2436,11.13651 9.3143,13.70622 5.4413,3.43492 9.2579,4.03068 13.9809,2.49259 z m -6.5409,-3.05685 c -1.8839,-1.0968 -0.966,-2.27219 1.7744,-2.27219 2.5595,0 3.8597,1.39885 2.2487,2.41931 -1.3894,0.87998 -2.3171,0.84607 -4.0231,-0.14712 z m 6.3957,-12.39522 c 3.2731,-1.66978 4.0689,-3.61816 3.0631,-7.4994 -0.782,-3.01806 -3.5591,-5.65572 -6.5936,-6.26262 -6.0174,0.14041 -8.641,6.7772 -6.9581,10.85512 1.9478,4.66181 5.2531,5.57786 10.4886,2.9069 z m -2.5379,-3.67999 c -0.843,-0.84301 -0.596,-4.80962 0.3354,-5.38525 1.4824,-0.91613 3.3042,1.6626 2.7461,3.88673 -0.4812,1.91724 -1.949,2.63101 -3.0815,1.49852 z m 21.2527,-0.002 c 1.581996,-1.0239 1.789896,-1.64815 1.433496,-4.3049 -0.596396,-4.44659 -2.293396,-5.88479 -5.436596,-5.27274 -4.4059,0.85792 -4.01,3.14252 -4.01,3.14252 0,0 3.8367,0.46841 1.8337,5.04251 -0.7266,0.87545 -1.2136,0.93943 -2.025,0.26605 -0.8303,-0.68911 -1.0682,-0.59862 -1.0682,0.4062 0,2.80952 5.397,3.2288 9.2726,0.72036 z m -19.085,-11.56329 c 2.1825,1.6507 3.0541,1.43648 4.5654,-1.12203 1.6756,-2.83666 1.6727,-3.13994 -0.027,-2.69878 -0.752,0.1952 -2.0362,-0.13592 -2.8538,-0.73582 -1.4264,-1.0467 -1.3761,-1.21121 1.2471,-4.07365 1.9837,-2.16452 3.1173,-2.83567 4.1322,-2.44625 1.2982,0.49819 1.3068,0.63788 0.1201,1.94916 -1.3594,1.50216 -1.6573,2.52127 -0.6923,2.36891 1.8126,-0.2862 3.4227,0.23099 3.8028,1.22151 0.5308,1.38334 -4.1949,8.45872 -5.2246,7.82232 -0.4063,-0.25108 -0.328,0.44486 0.174,1.54653 1.2178,2.67272 1.9311,2.52456 2.9677,-0.61642 1.2848,-3.8929 6.9983,-5.75992 11.0277,-3.60349 1.344696,0.71966 1.511196,0.53894 1.511196,-1.63986 0,-3.83708 -2.144196,-7.48312 -5.334196,-9.0702 -2.4265,-1.20723 -4.4794,-1.39478 -13.297,-1.21472 -9.9815,0.20382 -10.5488,0.30406 -13.2647,2.34391 -4.2281,3.17574 -6.1263,5.51889 -8.8253,10.89365 -3.0198,6.01378 -2.6805,7.25408 1.9846,7.25408 2.9585,-0.14782 4.4843,0.93221 4.6303,0.0532 1.4096,-8.4861 10.0814,-10.51083 13.3554,-8.23207 z M 103.09473,548.4043 c -0.6062,-3.17086 -7.958596,-5.87999 -11.950296,-4.40333 -1.6331,0.60413 -1.3644,0.82016 2.5538,2.05256 2.4085,0.75756 5.3784,2.01692 6.599696,2.7986 2.978,1.90591 3.2387,1.86416 2.7968,-0.44783 z" transform="translate(204.24039,494.40889) translate(3210.9292,-526.25391) translate(-3417.4795,-450.03122)" fill="#030303"/>
</svg>