<svg xmlns="http://www.w3.org/2000/svg" xml:space="preserve" viewBox="0 0 2000 2000"><path d="M1725.103 839.56a378 378 0 0 1 2.911 13.088l.154.727a379 379 0 0 0-3.077-13.867q.005.026.012.052M1722.027 827.115l.442 1.634c.64 2.3 1.268 4.58 1.87 6.83a859 859 0 0 0-2.312-8.464M1724.98 839.054l-.003-.013-.113-.468zM273.786 844.443l.207-.91.139-.61q-.318 1.374-.633 2.784.143-.634.287-1.264M275.959 834.604l-.044.155-.222.819c.087-.321.179-.651.266-.974M274.774 840.204l-.009.044c.134-.56.269-1.125.404-1.676-.133.537-.264 1.086-.395 1.632" style="fill:none"/><path d="M1313.749 374.144c150.749 72.635 176.496 94.877 180.831 100.729 3.831-3.84 7.277-7.327 9.941-10.022 2.118-2.143 3.867-3.912 5.105-5.15.88-.88 1.771-1.876 2.661-2.971l-.125-.145-.574-.662-.34-.39c-.207-.237-.43-.491-.662-.752l-.386-.437c-.263-.297-.546-.614-.837-.938l-.447-.498a261 261 0 0 0-1.496-1.648q-.542-.592-1.128-1.227l-.551-.594q-.617-.666-1.282-1.374l-.578-.614c-.464-.492-.938-.994-1.434-1.514l-.596-.623q-.696-.727-1.433-1.489-.369-.38-.746-.769-.759-.78-1.557-1.593l-.682-.693a451 451 0 0 0-1.849-1.861l-.664-.665a466 466 0 0 0-2.082-2.061l-.721-.709a498 498 0 0 0-2.232-2.174l-.749-.724a608 608 0 0 0-2.407-2.305l-.748-.71a502 502 0 0 0-2.609-2.456l-.704-.656c-.932-.868-1.88-1.746-2.854-2.639l-.598-.547a500 500 0 0 0-3.025-2.747l-.521-.469a566 566 0 0 0-3.182-2.838l-.52-.461a540 540 0 0 0-3.453-3.023l-.667-.58a569 569 0 0 0-4.298-3.688 557 557 0 0 0-3.677-3.099l-.792-.662a623 623 0 0 0-13.766-11.141l-.524-.41a646 646 0 0 0-4.728-3.675l-.167-.128a659 659 0 0 0-4.871-3.706l-.479-.362a668 668 0 0 0-4.928-3.669l-.691-.51a650 650 0 0 0-4.968-3.617q-.418-.302-.839-.604a690 690 0 0 0-5.076-3.612l-.882-.62a666 666 0 0 0-5.255-3.653l-.852-.585a660 660 0 0 0-12.054-8.077l-.495-.322a702 702 0 0 0-6.273-4.052c-70.971-45.256-188.681-100.948-347.104-109.924l-2.189-.064c-152.072-7.744-272.616 27.708-357.887 67.68a683 683 0 0 0-55.761 29.321 712 712 0 0 0-4.179 2.474c-.472.282-.938.564-1.408.846-.909.546-1.819 1.092-2.719 1.638q-.807.491-1.609.982-1.24.756-2.47 1.513-.834.514-1.663 1.03a685 685 0 0 0-4.035 2.521 639 639 0 0 0-6.168 3.932q-.822.53-1.637 1.059a610 610 0 0 0-3.809 2.491q-1.126.742-2.242 1.485c-.496.33-.994.659-1.486.988-.801.535-1.593 1.07-2.386 1.604-.428.289-.86.578-1.286.867a600 600 0 0 0-3.06 2.089l-.544.372a711 711 0 0 0-3.536 2.449l-1.099.771c-.794.556-1.588 1.113-2.373 1.668q-.687.487-1.369.973-1.034.734-2.056 1.465-.717.514-1.428 1.027-.972.7-1.932 1.396l-1.443 1.051q-.939.685-1.867 1.368-.714.525-1.421 1.049a872 872 0 0 0-3.23 2.404q-.904.678-1.797 1.353-.675.509-1.344 1.016-.92.698-1.828 1.394c-.42.321-.842.642-1.258.962-.637.489-1.265.976-1.893 1.462-.377.292-.758.585-1.132.876q-1.143.89-2.266 1.773l-.688.539q-1.454 1.144-2.877 2.28l-.924.74c-.637.509-1.274 1.019-1.901 1.525-.386.311-.765.62-1.148.93q-.82.663-1.628 1.322c-.4.326-.794.65-1.19.975a443 443 0 0 0-2.713 2.237q-.735.609-1.46 1.215a433 433 0 0 0-2.592 2.177 445 445 0 0 0-2.522 2.143l-1.127.964-1.372 1.182-1.057.914c-.465.403-.922.802-1.379 1.202-.332.29-.667.581-.994.868-.507.445-1.005.885-1.504 1.325l-.797.703q-1.113.987-2.196 1.957l-.83.747c-.452.407-.906.814-1.35 1.217l-.923.839-1.2 1.093-.939.863-1.109 1.021q-.477.44-.947.878l-1.042.97-.935.875-.992.933q-.461.435-.915.865-.48.454-.95.903l-.882.842-.936.898a346 346 0 0 0-1.734 1.676l-.82.796-.85.833c-.266.261-.537.525-.798.783-.384.378-.757.749-1.131 1.119q-.562.556-1.107 1.102l-.798.797-.734.74-.724.731-.719.731c-.224.228-.45.457-.669.682l-.704.721-.621.639-.69.714-.569.59-.657.685-.56.586-.614.646-.495.523-.628.665-.43.459-.603.645-.37.399a314 314 0 0 0-2.23 2.425l-.086.095-.601.664c-.06.066-.124.136-.182.202l-.509.567-.229.256-.451.506-.203.228-.427.483-.169.192-.389.444-.138.157-.37.426-.077.089-.362.418-.002.003a37 37 0 0 0 2.531 2.827c1.24 1.24 2.992 3.012 5.114 5.159 4.297 4.348 10.632 10.756 17.332 17.385 41.962-26.494 104.811-85.499 237.017-141.664 168.967-71.749 377.492-56.307 563.905 33.564" style="fill:#d8d8d8"/><path d="m471.194 428.427.465.951c.067.145 6.28 13.501 13.13 23.388l.234-.267.168-.192.446-.507.153-.174q.291-.33.611-.687l.057-.064.851-.948.684-.757.244-.268.603-.661.326-.355.592-.644.363-.393.623-.671.389-.418.689-.736.38-.405.824-.872.302-.319q1.169-1.231 2.465-2.572l.365-.376q.47-.485.955-.983l.48-.491.9-.918.555-.562.891-.9.595-.598.941-.941.594-.592 1.028-1.018.572-.565q.612-.602 1.242-1.218l.41-.401a429 429 0 0 1 3.513-3.391l.604-.576q.613-.584 1.24-1.179l.708-.669q.6-.568 1.215-1.143l.753-.705 1.223-1.138.801-.742q.626-.579 1.264-1.165.396-.365.798-.732.688-.63 1.392-1.268l.731-.665a690 690 0 0 1 1.776-1.601c.135-.121.266-.241.402-.362a526 526 0 0 1 2.252-2.008c.183-.163.372-.328.556-.491q.864-.765 1.747-1.54l.831-.727a478 478 0 0 1 2.471-2.148q.748-.646 1.506-1.299l.99-.848 1.52-1.296q.504-.429 1.013-.859.792-.669 1.595-1.344c.33-.277.657-.553.99-.831q.902-.754 1.819-1.514l.811-.674a651 651 0 0 1 5.474-4.476l.857-.69q.973-.784 1.961-1.574c.356-.285.718-.571 1.077-.857q.903-.72 1.819-1.442l1.16-.913 1.797-1.407 1.213-.944q.91-.706 1.833-1.417l1.215-.935q.966-.74 1.943-1.482l1.157-.88q1.119-.846 2.254-1.697l.902-.678a749 749 0 0 1 3.209-2.385q.314-.231.629-.461a676 676 0 0 1 2.636-1.933q.595-.432 1.192-.864 1.07-.777 2.151-1.555.665-.477 1.335-.956 1.035-.74 2.081-1.484a1061 1061 0 0 1 3.483-2.455l1.428-.998q1.069-.744 2.15-1.49.704-.486 1.412-.974 1.149-.788 2.309-1.577c.433-.295.863-.589 1.299-.884q1.448-.98 2.916-1.962c.25-.168.496-.335.747-.502a616 616 0 0 1 3.719-2.465c.352-.232.71-.464 1.063-.696q1.35-.886 2.716-1.773c.482-.313.969-.625 1.453-.938q1.194-.771 2.399-1.542l1.582-1.007a601 601 0 0 1 6.359-3.991l1.638-1.013q1.231-.757 2.474-1.515c.53-.323 1.057-.646 1.59-.969q1.377-.834 2.768-1.667c.448-.269.892-.537 1.341-.805a744 744 0 0 1 4.173-2.471 697 697 0 0 1 38.068-20.759 702 702 0 0 1 7.056-3.522 704 704 0 0 1 27.357-12.76 715 715 0 0 1 102-35.935 728 728 0 0 1 44.07-10.408c62.721-12.784 128.189-17.637 195.255-14.428v-.012l2.634.085c70.814 3.811 139.546 17.132 204.287 39.594a711 711 0 0 1 19.386 7.042c44.96 17.073 87.95 38.618 128.047 64.187a674 674 0 0 1 6.055 3.91l.64.417a657 657 0 0 1 5.601 3.706l.874.584a704 704 0 0 1 5.341 3.619q.448.307.893.613a704 704 0 0 1 5.214 3.616l.744.523a661 661 0 0 1 5.22 3.705l.373.269a651 651 0 0 1 10.374 7.608l.642.48q2.343 1.759 4.618 3.499l.761.583a604 604 0 0 1 4.424 3.423l.702.55a639 639 0 0 1 4.34 3.427l.514.411a635 635 0 0 1 4.447 3.583 619 619 0 0 1 4.23 3.474l.397.328a562 562 0 0 1 3.917 3.281l.577.487a586 586 0 0 1 3.671 3.133l.608.524a565 565 0 0 1 3.518 3.058l.513.451a573 573 0 0 1 7.141 6.379l.106.096a589 589 0 0 1 3.241 2.972l.36.332q1.509 1.398 2.95 2.752l.454.427q1.41 1.329 2.753 2.613l.422.404q1.349 1.291 2.628 2.535l.316.308a462 462 0 0 1 5.096 5.037l.161.161c.766.77 1.504 1.518 2.222 2.249l.286.291a423 423 0 0 1 6.107 6.373l.143.153a337 337 0 0 1 3.114 3.373l.118.13q.668.733 1.26 1.395l.144.161q.574.64 1.076 1.209l.135.153q.499.564.925 1.053l.028.032c6.803-9.872 12.959-23.071 13.026-23.215l.241-.518.111-.07c.342-.864 2.226-8.139-20.396-25.185-1.531-1.155-3.612-2.789-6.247-4.858-150.879-118.467-321.9-183.098-494.573-186.906h-.229c-177.706.35-353.8 65.04-509.242 187.076-2.635 2.069-4.717 3.703-6.247 4.857-20.182 15.166-20.887 22.605-20.56 24.658" style="fill:#f4f4f4"/><path d="M1376.411 446.208c68.982 34.491 91.749 45.046 98.445 48.028 6.474-6.165 13.591-13.216 19.723-19.364-4.335-5.852-30.082-28.094-180.831-100.729-186.412-89.871-394.938-105.313-563.912-33.564C617.631 396.746 554.782 455.75 512.82 482.245c5.522 5.464 11.286 11.07 16.372 15.806 49.836-33.48 149.606-105.376 364.143-146.388 252.437-48.271 394.571 50.267 483.076 94.545" style="fill:#bcbcbc"/><path d="m1456.388 509.966.122-.136.406-.211c2.978-1.549 9.973-7.794 17.941-15.383-6.696-2.982-29.463-13.537-98.445-48.028-88.505-44.279-230.639-142.816-483.076-94.546C678.799 392.674 579.028 464.57 529.193 498.05c6.227 5.799 11.433 10.289 13.893 11.568l1.373.714c2.412.354 10.435-.08 31.19-12.74 1.764-1.074 4.063-2.53 6.725-4.216 19.876-12.587 66.421-42.064 135.659-68.083 86.197-32.392 178.416-48.816 274.094-48.816h.284c99.446-1.871 195.332 13.922 284.963 46.921 71.911 26.474 119.864 56.876 140.342 69.859 2.626 1.665 4.895 3.103 6.635 4.165 24.423 14.869 31.242 12.872 32.037 12.544" style="fill:#a0a0a0"/><path d="M1689.53 984.835a25 25 0 0 0-2.024.228q-.285.043-.569.094-.361.067-.72.145-.277.058-.552.122a23 23 0 0 0-.725.19q-.265.07-.528.146c-.251.075-.5.159-.748.243-.162.055-.325.105-.485.163-.272.098-.541.207-.81.316-.134.054-.27.103-.404.16q-.602.254-1.191.545c-8.314 3.972-13.669 12.481-13.669 21.691a23.94 23.94 0 0 0 4.711 14.256c4.35 1.77 9.984 2.514 12.551-3.715 4.517-10.925 12.921 1.628 19.645-14.182 4.098-9.744-1.674-16.173-6.737-19.687a24 24 0 0 0-6.062-.778h-.012c-.36 0-.718.014-1.074.03q-.3.013-.597.033M1662.273 1011.87l-.032-.34c-.02-.216-.047-.43-.062-.647a29 29 0 0 1-.074-2.007c0-.651.027-1.298.07-1.942.014-.21.04-.417.058-.625.039-.435.083-.869.141-1.3.033-.242.073-.481.112-.722a27 27 0 0 1 .671-3.075c.065-.235.128-.469.199-.702.123-.405.259-.805.399-1.204.07-.2.135-.403.21-.602q.305-.812.657-1.602.031-.076.063-.151.391-.86.836-1.693c.095-.178.199-.351.297-.527.21-.376.423-.749.65-1.115q.191-.304.391-.606.323-.496.664-.978a29 29 0 0 1 1.167-1.528q.23-.286.469-.567.059-.072.118-.142c-2.167-1.618-4.878-2.85-8.053-3.42-9.533 3.215-16.406 12.237-16.406 22.844 0 .592.029 1.176.071 1.758 2.754 1.219 8.038 2.403 17.384.893" style="fill:#f4f4f4"/><path d="M1523.43 527.203c45.96 42.545 128.582 145.495 148.699 250.073 20.117 104.63 23.636 232.845 36.715 166.978s6.881-85.511 16.546-56.307c8.38 25.396 3.736-30.431-3.583-61.242-4.136-14.48-8.613-28.86-13.486-43.103-29.421-85.651-72.599-166.555-127.573-238.515-21.434-28.105-44.643-54.834-69.377-80.049-.958.966-2.052 2.073-3.293 3.328a2690 2690 0 0 1-13.137 13.211c-1.501 7.497 2.388 21.406 28.489 45.626" style="fill:#d8d8d8"/><path d="M1227.488 1516.387c-.623 13.651-1.57 25.925-3.009 34.175a278 278 0 0 0 3.374-4.171c6.252-16.031 16.527-38.404 30.008-65.276 0-.052.053-.052.053-.105 20.169-40.339 47.483-90.816 78.683-144.865 38.343-66.392 74.901-124.905 102.214-164.509l.052-.052c9.326-13.55 17.581-24.859 24.484-33.549 6.324-16.247 6.734-21.526 6.554-23.137-2.496 1.092-13.127 8.804-49.272 62.347-27.491 40.723-61.302 95.49-95.206 154.213s-64.429 115.39-85.95 159.558c-4.7 9.649-8.654 18.048-11.985 25.371" style="fill:#bcbcbc"/><path d="M1438.812 1171.636c-27.313 39.604-63.871 98.117-102.214 164.509-31.2 54.049-58.513 104.526-78.683 144.865 0 .053-.053.053-.053.105-13.481 26.871-23.756 49.245-30.008 65.276 7.356-9.266 17.529-23.129 31.535-43.877 27.49-40.722 61.302-95.49 95.206-154.214s64.429-115.389 85.95-159.558c11.459-23.517 18.5-39.651 22.804-50.708-6.903 8.69-15.159 20-24.484 33.549z" style="fill:#a0a0a0"/><path d="M1564.505 484.079c-15.36-17.681-27.467-31.366-37.068-41.889-2.636 4.85-5.977 10.537-9.45 15.27l.001.066-.5.667a53 53 0 0 1-1.192 1.528l-.705.938-.036-.043c-.242.287-.484.563-.727.836 44.102 45.865 82.952 96.721 115.713 151.235 11.281 11.941 42.589 47.377 68.744 98.25-24.267-50.425-83.516-167.819-134.78-226.858M1595.705 1388.146c40.707-58.355 30.15-92.024 73.903-155.422 43.754-63.346 36.978-109.883 66.392-139.297 23.785-23.785 11.99-109.691 6.604-141.703 1.404 15.334 2.492 30.695 3.322 46.046.358 9.353.55 18.897.141 28.27l-.339 4.082c-1.021 16.83-11.747 31.534-24.653 41.672-4.2 3.298-8.474 6.185-13.238 8.684l.009.015a5 5 0 0 1-.627.324l-.037.02-.002-.003c-.048.021-.108.049-.147.064-4.958 2.111-9.086 4.503-12.619 7.31a23 23 0 0 0-2.062 1.8l-.153.141a22 22 0 0 0-1.938 1.891c-.784.844-1.382 1.497-1.988 2.254a42 42 0 0 0-1.825 2.47 33 33 0 0 0-1.672 2.658 10 10 0 0 1-.162.299v.015l-.286.522-.019.039-.06.106c-.172.29-.327.596-.487.909q-.184.363-.381.733c-.148.303-.285.615-.427.923-.127.275-.259.546-.381.825-.158.359-.304.728-.454 1.093-.097.236-.199.468-.293.706-.186.474-.36.956-.532 1.438-.049.137-.103.271-.151.408a51 51 0 0 0-.617 1.887c-12.749 41.517-48.246 113.128-94.955 191.564a384 384 0 0 0-5.097 8.828c-4.66 27.411-20.212 129.172 15.231 78.429M1434.294 1651.928c46.275-41.233-20.117 75.951 13.551 48.271 33.721-27.628 64.396-49.794 110.146-118.182s95.071-129.213 65.394-124.696c-14.72 2.241-29.552-4.798-40.768-12.461a35 35 0 0 1-2.766-1.237c-12.742-6.395-28.069-19.408-30.682-45.295-8.082 16.066-73.617 145.586-96.754 178.174-24.686 34.719-64.395 116.658-18.121 75.426M1423.422 1562.109c26.683-38.921 32.303-14.129 51.422-46.275 19.119-32.198 61.034-111.984 73.746-146.861 2.59-7.086 5.857-15.102 9.592-23.792 3.214-8.593 7.254-17.62 12.102-27.06 13.336-28.88 29.515-61.617 44.33-91.964 24.74-50.635 43.964-101.584 36.925-123.067-5.527-16.829-25.532 27.105-34.147 47.893-14.586 44.049-37.663 95.804-54.157 130.881-41.709 88.701-93.699 182.975-135.683 246.031a4436 4436 0 0 1-7.576 11.34c-8.847 22.012-16.974 52.62 3.446 22.874M1192.573 1599.928c1.909 15.314 25.529-2.079 39.109-13.502 5.13-5.877 10.263-11.763 15.547-17.55-8.167 14.821-18.268 28.469-29.711 40.932-8.053 8.282-16.637 17.374-27.668 21.771-.767.253-1.467.423-2.111.526-7.776 6.467 11.221 7.994-.892 15.621-12.711 8.089-10.032 27.156 20.8 13.079 28.101-14.707 46.275-30.15 103.265-106.574 56.99-76.477-11.083 68.02 29.099 34.509s134.15-179.006 184.469-271.556c50.267-92.55 63.713-188.093 71.749-229.693 7.721-41.548-23.794-63.345-58.355-48.901-26.219 10.935-18.208 20.715-12.845 24.784.967.066 1.866.271 2.679.652.167.09.302.207.458.307 7.911.609 20.949 6.457 6.53 41.958-19.608 48.279-41.233 112.65-86.494 177.524-40.133 57.524-80.261 109.901-88.84 121.032-1.99 2.851-3.979 5.704-5.993 8.538 35.77-56.474 69.317-114.482 101.024-173.333 10.997-20.412 22.623-42.862 33.049-63.548 10.559-21.372 21.445-42.641 30.575-64.662 3.845-9.626 14.12-34.26 10.267-43.451-4.753-8.767-26.023 7.502-40.454 20.053-5.71 6.251-8.93 12.124-6.947 15.172 4.073 6.185-2.55 14.238-6.998 18.677-.796 3.265-2.09 7.389-4.012 12.636-4.647 12.685-12.357 30.195-22.915 52.045-21.665 44.839-52.929 103.02-88.035 163.825s-69.859 116.971-97.859 158.153c-13.645 20.068-24.954 35.5-33.615 45.868-6.257 7.489-10.515 11.617-13.607 13.634-10.164 8.468-23.328 14.887-21.269 31.474M1462.147 1114.541c1.283-1.188 2.42-2.121 3.437-2.838l-.479-1.382q-1.495 2.124-2.958 4.22" style="fill:#f4f4f4"/><path d="M1210.116 1564.861c1.372-.6 5.201-3.202 14.364-14.299 1.439-8.25 2.385-20.524 3.009-34.175-16.715 36.752-17.625 46.217-17.373 48.474" style="fill:#d8d8d8"/><path d="M1222.302 1685.544c41.6-32.828 106.627-136.461 86.194-78.473-20.485 58.04 44.594 4.044 82.78-52.946 38.238-56.99 124.222-195.289 152.061-252.962s55.992-108.622 62.715-169.972c6.671-61.35 19.014-62.19-3.887-83.568-16.735-15.658-35.273-23.216-53.222-21.317-11.332 3.208-22.152 9.537-31.33 18.716-17.113 17.113-36.275 42.268-52.507 65.298l.479 1.382c3.316-2.339 5.355-2.382 6.992-1.437 2.222 1.283 3.238 4.113 1.31 12.027 4.448-4.439 11.071-12.492 6.998-18.677-1.983-3.048 1.237-8.921 6.947-15.172a378 378 0 0 0-12.808 11.692c8.05-8.485 36.232-37.701 50.007-36.762-5.363-4.069-13.374-13.849 12.845-24.784 34.562-14.444 66.077 7.354 58.355 48.901-8.036 41.6-21.483 137.144-71.749 229.693-50.319 92.55-144.287 238.045-184.469 271.556s27.891-110.986-29.099-34.509c-56.99 76.424-75.164 91.867-103.265 106.574-30.832 14.077-33.511-4.99-20.8-13.079 12.114-7.627-6.883-9.154.892-15.621-6.699 1.067-6.981-5.594-4.739-11.338-.121 2.757-.985 9.629 3.226 9.009 3.626-.719 7.018-3.64 9.962-5.975 6.238-5.309 12.003-11.315 17.665-17.393 6.088-6.54 11.956-13.255 17.828-19.982-13.58 11.423-37.2 28.817-39.109 13.502-2.058-16.587 11.105-23.006 21.271-31.474-1.76 1.148-3.145 1.618-4.298 1.618a4.1 4.1 0 0 1-2.104-.58c-3.138-1.812-3.88-6.7 2.702-24.664.184-.502.381-1.026.575-1.543a855 855 0 0 0-17.034 39.437c-15.552 38.688-24.549 69.642-26.377 90.186 5.188 12.168 21.543 39.109 54.993 12.637" style="fill:#d8d8d8"/><path d="M1245.259 1745.491c13.954-4.651 36.949-26.953 68.347-66.285 29.182-36.556 65.093-86.957 109.784-154.081 41.857-62.866 93.708-156.894 135.32-245.388 45.686-97.159 70.223-168.975 67.32-197.034-2.817-27.229-17.308-47.417-39.757-55.388-12.083-4.29-25.009-4.495-37.33-1.008 17.948-1.899 36.486 5.658 53.222 21.317 22.901 21.378 10.558 22.219 3.887 83.568-6.723 61.35-34.877 112.299-62.715 169.972s-113.822 195.972-152.061 252.962c-38.186 56.99-103.265 110.986-82.78 52.946 20.432-57.988-44.594 45.645-86.194 78.473-33.45 26.472-49.805-.469-54.994-12.636-.704 7.916-.347 14.291 1.114 18.961 6.802 21.735 21.716 40.264 39.897 49.566 12.494 6.39 25.613 7.83 36.94 4.055" style="fill:#bcbcbc"/><path d="M1396.634 1684.809c39.499-23.899 25.107 3.992 9.507 49.006s76.425-2.731 145.233-96.804c68.808-94.021 142.396-218.768 159.519-279.12 17.071-60.352-15.6-2.521-50.319 48.271-24.372 35.74-45.781 39.898-56.35 39.219-3.486 1.132-6.917 1.705-10.29 1.706-3.849 0-7.619-.75-11.315-2.226 11.216 7.663 26.047 14.702 40.768 12.461 29.677-4.517-19.645 56.307-65.394 124.696s-76.424 90.553-110.146 118.182c-33.669 27.681 32.724-89.503-13.551-48.271s-6.566-40.707 18.121-75.427c23.137-32.588 88.672-162.107 96.754-178.174l-.012-.121c-6.401 11.615-15.643 28.379-21.122 38.322-7.026 12.449-18.897 32.512-25.993 44.809-10.484 17.042-23.723 39.048-34.703 55.699a1940 1940 0 0 1-15.461 23.614c.181-.048.275-.064.275-.064l-1.833 2.389c-11.596 17.375-23.504 34.578-35.755 51.538-17.736 31.466-46.875 87.779-17.933 70.295" style="fill:#d8d8d8"/><path d="M1384.395 1621.2c18.751-25.948-1.628 23.636 23.741-16.598 18.513-29.301 33.429-39.289 40.138-42.517.721-1.039 1.449-2.075 2.168-3.114 4.567-6.489 10.842-16.258 15.327-22.96 4.391-6.68 10.954-16.395 15.086-23.123 3.952-6.284 16.447-26.138 20.217-32.138 7.229-12.204 19.342-32.158 26.488-44.494l21.587-38.141a75 75 0 0 1-.285-3.791c-.695-14.294 2.431-30.728 9.318-49.143-3.735 8.69-7.002 16.705-9.592 23.792-12.711 34.877-54.626 114.663-73.746 146.861-19.119 32.146-24.74 7.354-51.422 46.275-20.42 29.746-12.293-.863-3.445-22.874-12.204 18.213-23.8 35.226-34.797 51.051-9.895 22.662-17.299 53.723-.783 30.914M1651.539 1103.09c7.038 21.483-12.186 72.433-36.925 123.067-14.816 30.347-30.994 63.083-44.33 91.964a362 362 0 0 1 10.992-19.792c29.648-49.786 54.733-96.75 72.309-134.932 5.626-20.94 10.117-46.964 6.149-68.501-5.353-29.259-20.538-7.902-30.061 9.598-2.216 13.372-6.603 29.344-12.28 46.489 8.614-20.787 28.619-64.722 34.146-47.893" style="fill:#d8d8d8"/><path d="M1659.733 1094.896c3.969 21.537-.523 47.56-6.149 68.501 10-21.724 17.578-40.615 22.161-55.539q.319-1.042.676-2.065c.094-.27.198-.533.296-.8.15-.411.297-.824.456-1.23.101-.257.211-.507.315-.761.168-.409.332-.821.509-1.224.111-.253.232-.499.346-.75.175-.383.345-.769.528-1.144.118-.278.242-.529.365-.763-15.59-26.241-41.231-24.657-49.146-23.449.374 2.129.685 4.298.914 6.516.629 6.082.102 13.651-1.333 22.307 9.524-17.501 24.709-38.857 30.062-9.599M1740.199 1221.471c-28.751 65.894-63.764 136.795-76.491 159.135-21.203 37.159-41.116 58.809-59.484 64.774 10.569.679 31.978-3.478 56.35-39.219 34.719-50.792 67.39-108.622 50.319-48.271-17.123 60.352-90.711 185.099-159.519 279.12-68.808 94.073-160.833 141.818-145.233 96.804s29.992-72.905-9.507-49.006c-28.941 17.485.197-38.829 17.932-70.295-24.903 34.476-51.216 67.95-79.221 99.798-10.831 12.254-21.843 24.273-33.575 35.794 33.501.43 62.111 16.208 77.167 26.431 19.925 13.529 64.463 17.303 101.676-.194 17.953-8.44 54.392-47.166 95.096-101.063 46.367-61.396 91.893-133.459 128.191-202.917 42.847-81.988 58.8-137.696 64.638-169.992 6.743-37.298 2.739-57.288-1.597-61.625-7.53-7.529-21.189-15.974-26.742-19.274m2.847 107.792c-8.002 23.786-17.127 47.21-27.439 70.09-15.486 33.859-33.513 67.77-51.275 100.481-53.106 99.518-120.419 191.736-199.527 272.136 39.198-47.315 80.261-96.352 116.323-147.166 10.522-14.495 22.039-31.24 32.07-46.214 22.487-33.821 44.36-68.247 63.129-104.302 18.769-35.756 34.588-73.907 49.749-111.263 10.357-26.139 19.97-52.586 28.227-79.468 2.791-8.953 5.359-17.983 7.628-27.083l.491.094c-4.357 24.727-11.43 48.906-19.376 72.695M1451.878 1560.65c-.517.777-1.04 1.549-1.558 2.325l1.833-2.389s-.094.016-.275.064" style="fill:#bcbcbc"/><path d="M1448.274 1562.086c-6.708 3.228-21.624 13.215-40.138 42.517-25.369 40.234-4.99-9.35-23.741 16.598-16.516 22.808-9.112-8.252.784-30.913-65.06 93.624-109.133 145.63-133.877 158.058 4.75 2.191 15.354 4.984 36.671 2.467 2.165-.256 4.312-.429 6.446-.547 58.279-56.296 107.695-121.697 153.855-188.18M1530.551 1085.78c-4.527 18.744-12.364 36.471-20.208 53.997-8.061 17.389-16.365 34.62-25.031 51.706-21.365 42.565-44.828 84.87-69.355 125.673-17.96 29.805-36.683 59.165-56.595 87.691 8.579-11.132 48.707-63.508 88.84-121.032 45.261-64.874 66.886-129.246 86.494-177.524 14.419-35.501 1.381-41.349-6.53-41.958 6.115 3.931 3.583 15.526 2.385 21.447" style="fill:#bcbcbc"/><path d="M1607.785 1417.665c38.186-45.277 54.311-129.79 94.021-201.172 39.709-71.434 66.917-118.707 66.917-192.61 0-58.128-20.728-199.914-46.388-288.668-28.728-79.573-78.929-156.771-116.4-207.98-35.245-48.167-65.967-82.784-74.68-92.397a224 224 0 0 1-3.818 7.352c9.601 10.523 21.708 24.208 37.068 41.889 51.265 59.039 110.513 176.433 134.78 226.857-26.156-50.872-57.464-86.308-68.744-98.25 32.318 53.777 58.719 111.105 78.372 170.715 4.76 14.453 9.112 29.037 13.115 43.713a859 859 0 0 1 2.312 8.464l.525 2.994.113.468q-.05-.235-.1-.468c.073.311.14.624.213.936a379 379 0 0 1 3.077 13.867c6.866 32.418 11.413 65.319 14.436 98.348 5.386 32.012 17.182 117.918-6.604 141.703-29.414 29.414-22.638 75.951-66.392 139.297-43.754 63.398-33.196 97.067-73.903 155.422-35.443 50.743-19.891-51.018-15.23-78.431-18.757 33.477-27.713 61.83-26.617 84.37.203 4.269.772 8.176 1.627 11.762 7.318 17.377 24.508 44.689 52.3 11.819" style="fill:#d8d8d8"/><path d="M1724.21 740.458c-.61-1.749-1.244-3.496-1.875-5.243 25.66 88.754 46.388 230.539 46.388 288.668 0 73.903-27.208 121.176-66.917 192.61-39.709 71.382-55.834 155.895-94.021 201.172-27.793 32.87-44.982 5.558-52.302-11.818 4.383 18.39 16.408 28.188 26.616 33.311 27.233 13.754 57.047-25.596 77.264-61.028 12.836-22.53 48.479-94.761 77.365-161.212 19.2-44.352 31.793-77.79 36.419-96.697 13.986-57.699 4.608-226.14-48.937-379.763" style="fill:#bcbcbc"/><path d="M1728.013 852.648a373 373 0 0 0-2.911-13.088 675 675 0 0 1 2.911 13.088" style="fill:#bcbcbc"/><path d="M1724.339 835.579a713 713 0 0 0-1.87-6.83c.616 2.277 1.248 4.549 1.847 6.83-.814-2.964-1.665-5.918-2.509-8.874 7.319 30.811 11.963 86.637 3.583 61.242-9.665-29.204-3.467-9.56-16.546 56.307s-16.598-62.348-36.715-166.978c-20.117-104.578-102.74-207.528-148.699-250.073-26.101-24.219-29.99-38.129-28.49-45.626-5.945 5.931-11.601 11.49-16.645 16.293 11.182 27.184 66.415 65.382 123.031 153.87 59.301 92.497 74.849 204.481 74.849 239.043 0 10.348.998 21.956 2.994 33.038 4.622 26 14.445 49.112 28.521 46.065 20.117-4.36 8.036-11.713 17.701 2.364 8.096 11.858 10.19-47.013 10.628-65.815-2.652-22.62-6.154-45.132-11.037-67.382l-.116-.481z" style="fill:#bcbcbc"/><path d="M1725.39 972.25c-9.665-14.077 2.416-6.723-17.701-2.364-14.077 3.047-23.899-20.065-28.521-46.065-1.996-11.083-2.994-22.69-2.994-33.038 0-34.562-15.548-146.546-74.849-239.043-56.616-88.488-111.849-126.686-123.031-153.87-6.628 6.312-12.192 11.31-15.971 14.137 10.741 8.694 51.269 43.621 95.011 108.501 29.816 44.225 55.31 93.547 75.773 146.598 25.32 65.64 42.954 137.212 52.449 212.75l4.762-.073q.445-.013.892-.013c16.018 0 29.049 13.057 29.049 29.106 0 16.005-13.011 29.028-29.011 29.048l-9.275.142c.153 7.132-.525 27.193-11.669 43.155 4.2 3.309 8.218 7.575 11.794 13.047.079-.112.143-.225.226-.336.569-.9 1.257-1.825 1.992-2.695l.052-.068.035-.041.019-.024c.658-.824 1.345-1.574 2.17-2.462a28 28 0 0 1 2.297-2.243 28 28 0 0 1 2.423-2.115c3.887-3.088 8.403-5.708 13.796-8.002 17.956-9.162 35.094-25.486 36.89-46.561l.403-3.916c.098-1.982.299-5.964.39-7.946.389-17.347-.334-34.705-1.428-52.031-1.359-19.813-3.031-39.644-5.347-59.394-.436 18.803-2.53 77.674-10.626 65.816" style="fill:#a0a0a0"/><path d="M1666.066 1023.474c-.128-.219-.262-.434-.384-.656a29 29 0 0 1-.847-1.663c-.083-.177-.153-.359-.232-.537a30 30 0 0 1-.531-1.257c-.091-.235-.171-.474-.256-.711a30 30 0 0 1-.389-1.142c-.079-.252-.15-.506-.222-.761a28 28 0 0 1-.698-3.126c-.042-.25-.085-.5-.12-.753-.046-.33-.081-.663-.115-.996-9.346 1.509-14.63.326-17.382-.895a23.9 23.9 0 0 0 3.907 11.47c4.612 1.133 10.494 1.814 17.269 1.027M1669.995 989.012c.15-.16.295-.323.448-.48q.57-.582 1.176-1.133c.065-.06.126-.124.192-.183q.708-.632 1.458-1.22c.152-.119.311-.23.466-.346.279-.21.554-.425.842-.626l-5.67.086c-2.687 0-5.267.448-7.681 1.262 3.175.57 5.886 1.802 8.053 3.42.232-.265.475-.522.716-.78" style="fill:#d8d8d8"/><path d="M1674.735 1032.781a29 29 0 0 1-3.237-2.566c-.179-.164-.361-.324-.536-.492-.269-.26-.527-.529-.786-.799a31 31 0 0 1-.559-.593 29 29 0 0 1-1.254-1.485 33 33 0 0 1-.624-.814 29 29 0 0 1-.54-.767c-.183-.266-.367-.531-.54-.803-.191-.299-.37-.606-.55-.913l-.045-.075c-6.775.788-12.656.106-17.268-1.029 4.307 6.514 11.694 10.822 20.071 10.822l6.426-.098c-.189-.124-.37-.261-.558-.388" style="fill:#a0a0a0"/><path d="M1704.012 1005.236c-6.723 15.81-15.127 3.257-19.645 14.182-2.567 6.229-8.201 5.485-12.551 3.715a23.86 23.86 0 0 0 9.279 7.518c2.772-.802 5.41-2.459 7.37-5.666 6.723-10.873 11.608 2.889 20.958-9.507 4.684-6.202 4.374-12.951 2.884-18.163-3.147-5.747-8.563-10.075-15.031-11.766 5.062 3.514 10.834 9.943 6.736 19.687" style="fill:#d8d8d8"/><path d="M1709.422 1015.478c-9.35 12.396-14.234-1.366-20.958 9.507-1.96 3.207-4.597 4.864-7.37 5.666.108.049.21.107.319.155 3.04 1.415 6.319 2.12 9.796 2.12 13.261 0 24.049-10.789 24.049-24.049 0-4.187-1.072-8.127-2.953-11.562 1.491 5.212 1.801 11.961-2.883 18.163" style="fill:#a0a0a0"/><path d="M296.021 1005.236c6.723 15.81 15.127 3.257 19.644 14.182 2.557 6.204 8.154 5.49 12.497 3.737a23.9 23.9 0 0 0 4.732-14.278c0-9.21-5.355-17.719-13.643-21.678a23 23 0 0 0-1.199-.548c-.139-.059-.28-.11-.419-.167-.266-.107-.531-.215-.799-.312-.167-.061-.336-.113-.504-.17-.244-.082-.487-.165-.733-.239-.18-.054-.361-.101-.541-.15q-.356-.1-.715-.188-.281-.066-.564-.124-.353-.077-.71-.143-.288-.051-.578-.096a24 24 0 0 0-1.302-.166 24 24 0 0 0-1.314-.095c-.357-.016-.714-.03-1.074-.03h-.012c-2.073 0-4.085.265-6.005.762-5.07 3.51-10.865 9.944-6.761 19.703M330.842 989.935q.24.283.472.57a30 30 0 0 1 1.166 1.527q.339.48.66.973c.132.203.267.405.394.611.225.365.438.737.647 1.112.099.176.203.349.298.527q.444.831.834 1.691c.029.064.053.132.082.197q.341.769.638 1.556c.076.203.142.409.214.614q.21.591.395 1.192c.071.235.135.473.201.71a28 28 0 0 1 .668 3.067c.039.242.08.484.113.728.059.43.102.863.141 1.298.019.209.044.416.058.625a29 29 0 0 1 .07 1.943c0 .673-.028 1.342-.074 2.007-.015.217-.042.431-.062.646l-.032.336c9.327 1.511 14.615.343 17.38-.875.043-.586.072-1.176.072-1.773 0-10.605-6.871-19.627-16.383-22.843-3.179.573-5.893 1.809-8.061 3.432.039.043.072.087.109.129" style="fill:#f4f4f4"/><path d="M274.643 887.947c9.665-29.204 3.467-9.56 16.546 56.307s16.598-62.348 36.715-166.978c20.117-104.578 102.74-207.528 148.699-250.073 26.053-24.175 29.976-38.078 28.498-45.585-4.281-4.27-8.71-8.73-13.17-13.243l-3.306-3.342c-88.287 89.765-156.145 199.432-196.946 318.568-4.786 13.989-9.191 28.108-13.266 42.325-7.426 30.637-12.221 87.632-3.77 62.021" style="fill:#d8d8d8"/><path d="M579.369 1177.244c-36.145-53.543-46.777-61.255-49.273-62.347-.18 1.608.229 6.871 6.521 23.053 6.917 8.701 15.196 20.041 24.551 33.634l.053.052c27.313 39.604 63.871 98.117 102.214 164.509 31.2 54.049 58.513 104.526 78.683 144.865 0 .053.053.053.053.105 13.504 26.917 23.792 49.323 30.041 65.36a271 271 0 0 0 3.35 4.139c-1.441-8.234-2.39-20.498-3.014-34.146-3.338-7.342-7.304-15.768-12.023-25.452-21.522-44.169-52.046-100.834-85.95-159.558s-67.716-113.492-95.206-154.214" style="fill:#bcbcbc"/><path d="M742.119 1481.01c-20.169-40.339-47.483-90.816-78.683-144.865-38.344-66.392-74.901-124.905-102.214-164.509l-.053-.052c-9.355-13.593-17.634-24.932-24.551-33.634 4.3 11.058 11.349 27.216 22.837 50.792 21.522 44.169 52.046 100.834 85.95 159.558s67.716 113.492 95.206 154.214c14.048 20.811 24.241 34.696 31.602 43.962-6.249-16.037-16.537-38.442-30.041-65.36-.001-.053-.053-.053-.053-.106" style="fill:#a0a0a0"/><path d="M300.749 710.937c25.985-50.54 57.055-85.845 68.522-98.013a841 841 0 0 1 46.987-70.094c21.237-28.519 44.291-55.695 68.921-81.376-.192-.218-.384-.432-.575-.658l-.048.059-1.922-2.539a80 80 0 0 1-.758-1.021l-.415-.559.006-.007c-3.277-4.571-6.403-9.912-8.898-14.507-9.596 10.519-21.696 24.195-37.04 41.859-51.265 59.037-110.514 176.431-134.78 226.856M264.033 1093.426c29.414 29.414 22.638 75.951 66.392 139.297 43.754 63.398 33.196 97.067 73.903 155.422 35.406 50.691 19.923-50.809 15.245-78.347a388 388 0 0 0-5.144-8.912c-46.709-78.435-82.206-150.046-94.954-191.561-.785-2.475-1.537-4.427-2.36-6.123l-.059-.131c-.267-.64-.518-1.244-.797-1.754-.187-.37-.312-.621-.455-.834l-.217-.4a5 5 0 0 0-.407-.735l-.099-.162c-.466-.828-.992-1.618-1.55-2.454a41 41 0 0 0-1.805-2.44c-.605-.755-1.203-1.408-1.983-2.248a35 35 0 0 0-1.967-1.968 37 37 0 0 0-2.18-1.861c-3.544-2.815-7.672-5.207-12.628-7.318-.039-.015-.1-.044-.148-.065l-.002.004-.038-.021a5 5 0 0 1-.626-.323l.01-.017c-14.313-7.745-27.134-19.237-33.897-34.244-2.199-5.062-3.665-10.626-3.997-16.11l-.339-4.082c-.408-9.376-.217-18.915.142-28.27.823-15.207 1.898-30.422 3.283-45.612-5.417 32.344-17.002 117.589 6.677 141.269M376.647 1457.321c-29.677-4.517 19.645 56.307 65.394 124.696s76.424 90.553 110.146 118.182c33.669 27.681-32.723-89.503 13.551-48.271s6.566-40.707-18.121-75.427c-23.161-32.621-88.808-162.377-96.781-178.228-2.597 25.922-17.936 38.95-30.694 45.352-.888.448-1.781.839-2.678 1.201-11.221 7.677-26.075 14.739-40.817 12.495M348.494 1103.09c-7.038 21.483 12.186 72.433 36.926 123.067 14.919 30.559 31.221 63.542 44.61 92.569 4.59 8.985 8.44 17.592 11.544 25.808 3.852 8.941 7.216 17.177 9.87 24.439 12.711 34.877 54.626 114.663 73.746 146.861 19.119 32.146 24.74 7.354 51.422 46.275 20.382 29.69 12.323-.748 3.495-22.749a4821 4821 0 0 1-7.659-11.465c-41.983-63.057-93.974-157.33-135.682-246.031-16.542-35.179-39.703-87.132-54.282-131.264-8.702-20.939-28.497-64.235-33.99-47.51M519.149 1103.616c1.969-3.026-1.19-8.837-6.822-15.037-14.438-12.572-35.841-28.98-40.612-20.189-3.859 9.186 6.441 33.875 10.267 43.451 9.13 22.021 20.016 43.291 30.575 64.662 12.589 25.036 26.475 51.516 39.841 76.163 29.792 54.476 60.968 108.281 94.233 160.718-2.04-2.875-4.043-5.775-6.059-8.666-8.781-11.397-48.757-63.594-88.74-120.904-45.261-64.874-66.886-129.246-86.494-177.524-14.387-35.423-1.438-41.323 6.478-41.954.159-.103.304-.218.476-.311.822-.387 1.736-.592 2.717-.656 5.363-4.071 13.362-13.849-12.849-24.781-34.562-14.444-66.077 7.354-58.356 48.901 8.036 41.6 21.483 137.144 71.749 229.693 50.319 92.55 144.287 238.045 184.469 271.556s-27.891-110.986 29.099-34.509c56.99 76.424 75.164 91.867 103.265 106.574 30.832 14.077 33.511-4.99 20.8-13.079-12.109-7.624 6.87-9.153-.883-15.614a13.6 13.6 0 0 1-2.153-.533c-11.031-4.397-19.614-13.488-27.668-21.771-11.443-12.463-21.543-26.111-29.711-40.932 5.253 5.751 10.355 11.602 15.455 17.444 13.56 11.421 37.32 28.97 39.235 13.608 2.052-16.531-11.017-22.963-21.169-31.389-3.103-1.982-7.392-6.118-13.742-13.719-8.661-10.367-19.971-25.799-33.615-45.868-28-41.182-62.753-97.348-97.859-158.153s-66.371-118.985-88.035-163.825c-10.557-21.85-18.267-39.361-22.914-52.045-1.931-5.271-3.228-9.409-4.023-12.681-4.449-4.446-11.015-12.465-6.955-18.63M534.442 1111.721c1.01.714 2.137 1.641 3.408 2.818q-1.45-2.08-2.935-4.187z" style="fill:#f4f4f4"/><path d="M789.883 1564.861c.252-2.257-.657-11.711-17.335-48.393.625 13.648 1.573 25.912 3.014 34.146 9.133 11.054 12.952 13.648 14.321 14.247" style="fill:#d8d8d8"/><path d="M482.386 1045.022c-9.185-9.185-20.016-15.517-31.358-18.722-17.929-1.876-36.444 5.683-53.16 21.323-22.901 21.378-10.558 22.219-3.887 83.568 6.723 61.35 34.877 112.299 62.715 169.972s113.822 195.972 152.061 252.962c38.186 56.99 103.265 110.986 82.78 52.946-20.432-57.988 44.594 45.645 86.194 78.473 33.389 26.424 49.746-.371 54.965-12.57-1.814-20.544-10.813-51.521-26.382-90.252a855 855 0 0 0-17.036-39.44c.194.519.392 1.043.576 1.546 6.582 17.964 5.841 22.852 2.702 24.664a4.1 4.1 0 0 1-2.104.58c-1.122 0-2.468-.45-4.162-1.533 10.152 8.426 23.221 14.857 21.169 31.389-1.915 15.362-25.676-2.187-39.235-13.608 5.903 6.763 11.801 13.514 17.921 20.088 5.662 6.078 11.427 12.084 17.665 17.393 2.943 2.334 6.338 5.257 9.962 5.975 4.22.621 3.341-6.259 3.227-9.01 2.228 5.712 1.978 12.381-4.696 11.345 7.753 6.461-11.226 7.99.883 15.614 12.711 8.089 10.032 27.156-20.8 13.079-28.101-14.707-46.275-30.15-103.265-106.574-56.99-76.477 11.083 68.02-29.099 34.509s-134.15-179.006-184.469-271.556c-50.267-92.55-63.713-188.093-71.749-229.693-7.721-41.548 23.794-63.345 58.356-48.901 26.211 10.931 18.212 20.709 12.849 24.781 13.779-.889 41.979 28.339 49.969 36.765a375 375 0 0 0-12.651-11.556c5.633 6.2 8.791 12.011 6.822 15.037-4.06 6.165 2.506 14.184 6.953 18.632-1.914-7.879-.897-10.702 1.32-11.982 1.642-.948 3.688-.903 7.019 1.455l.474-1.369c-16.237-23.038-35.408-48.209-52.529-65.33" style="fill:#d8d8d8"/><path d="M777.731 1685.544c-41.6-32.828-106.627-136.461-86.194-78.473 20.485 58.04-44.594 4.044-82.78-52.946-38.238-56.99-124.222-195.289-152.061-252.962s-55.992-108.622-62.715-169.972c-6.671-61.35-19.014-62.19 3.887-83.568 16.716-15.64 35.231-23.199 53.16-21.323-12.313-3.479-25.229-3.272-37.303 1.015-22.449 7.97-36.939 28.158-39.756 55.388-2.903 28.059 21.634 99.875 67.32 197.034 41.612 88.494 93.463 182.521 135.32 245.388 44.691 67.125 80.602 117.525 109.784 154.081 31.398 39.333 54.394 61.634 68.347 66.285 11.328 3.776 24.446 2.334 36.94-4.056 18.181-9.302 33.096-27.831 39.897-49.566 1.457-4.656 1.816-11.01 1.119-18.894-5.219 12.198-21.576 38.993-54.965 12.569" style="fill:#bcbcbc"/><path d="M339.46 1406.162c-34.719-50.792-67.39-108.622-50.319-48.271 17.123 60.352 90.711 185.099 159.519 279.12 68.808 94.073 160.833 141.818 145.233 96.804s-29.992-72.905 9.507-49.006c28.955 17.493-.225-38.882-17.957-70.34-12.181-16.95-24.041-34.124-35.666-51.41l-1.897-2.472s.096.017.282.066a2877 2877 0 0 1-8.01-12.004c-5.452-8.481-13.318-20.586-18.716-29.035l-18.062-29.443c-4.207-6.682-10.109-16.862-14.104-23.758-4.638-8.016-16.405-27.946-20.639-35.933-3.804-6.894-12.555-22.782-17.787-32.273l-.007.068c7.973 15.851 73.62 145.606 96.781 178.228 24.687 34.719 64.396 116.659 18.121 75.427s20.117 75.951-13.551 48.271c-33.721-27.628-64.396-49.794-110.146-118.182s-95.071-129.213-65.394-124.696c14.742 2.244 29.596-4.819 40.817-12.495-3.722 1.499-7.523 2.26-11.399 2.261-3.374 0-6.807-.573-10.294-1.705-10.582.666-31.969-3.524-56.312-39.222M340.3 1094.896c-3.979 21.596.547 47.701 6.195 68.671 17.574 38.155 42.628 85.052 72.23 134.761q6.25 10.5 11.305 20.398c-13.389-29.027-29.691-62.01-44.61-92.569-24.74-50.635-43.964-101.584-36.926-123.067 5.493-16.726 25.288 26.57 33.989 47.51-5.628-17.036-9.974-32.903-12.169-46.192-9.526-17.484-24.67-38.722-30.014-9.512" style="fill:#d8d8d8"/><path d="M576.611 1562.109c-26.683-38.921-32.303-14.129-51.422-46.275-19.119-32.198-61.034-111.984-73.746-146.861-2.654-7.262-6.019-15.499-9.87-24.439 7.057 18.677 10.267 35.331 9.564 49.793a76 76 0 0 1-.285 3.791c5.37 9.49 14.313 25.282 18.186 32.129 7.609 13.628 20.164 34.069 28.118 47.54 1.919 3.289 5.234 8.453 7.283 11.73 8.478 13.524 20.944 33.448 29.79 46.495a1941 1941 0 0 0 17.543 26.082c6.715 3.235 21.623 13.229 40.123 42.509 25.37 40.234 4.99-9.35 23.741 16.598 16.485 22.765 9.141-8.134-.727-30.783-10.999-15.826-22.597-32.841-34.805-51.057 8.831 22.001 16.889 52.438-3.493 22.748" style="fill:#d8d8d8"/><path d="M369.91 1075.672c-7.911-1.208-33.564-2.795-49.155 23.464.323.61.613 1.286.889 1.949.919 1.902 1.747 4.05 2.604 6.751 4.598 14.972 12.206 33.93 22.247 55.731-5.648-20.969-10.174-47.075-6.195-68.671 5.344-29.21 20.488-7.973 30.014 9.511-1.423-8.619-1.946-16.158-1.319-22.22a93 93 0 0 1 .915-6.515M519.386 1776.342c37.213 17.496 81.752 13.724 101.676.194 15.076-10.236 43.74-26.043 77.299-26.432-41.561-41.719-78.528-87.78-112.919-135.635 17.732 31.458 46.912 87.833 17.957 70.34-39.499-23.899-25.107 3.992-9.507 49.006s-76.425-2.731-145.233-96.804c-68.808-94.021-142.396-218.768-159.519-279.12-17.071-60.352 15.6-2.521 50.319 48.271 24.343 35.698 45.731 39.888 56.312 39.221-18.366-5.964-38.275-27.615-59.479-64.776-12.728-22.34-47.742-93.244-76.492-159.136-5.553 3.3-19.212 11.745-26.742 19.276-4.336 4.336-8.34 24.326-1.598 61.625 5.838 32.296 21.791 88.004 64.638 169.992 36.298 69.457 81.824 141.521 128.191 202.917 40.706 53.896 77.145 92.621 95.097 101.061m-136.278-195.337c-16.582-25.88-32.807-54.121-47.441-81.17-16.24-29.888-32.853-61.143-47.323-91.941-12.005-25.555-22.374-51.878-31.392-78.631-6.022-17.833-11.358-35.914-15.617-54.251-1.408-6.115-2.757-12.241-3.759-18.443l.491-.094c10.946 42.349 26.347 83.477 42.916 123.913 12.973 31.367 26.833 63.804 42.687 93.901 17.3 33.291 37.34 65.169 57.943 96.489 46.535 70.454 98.647 137.008 153.946 200.853-39.698-38.288-76.398-83.627-109.929-128.531-14.575-19.853-29.11-41.35-42.522-62.095M549.777 1563.059l-1.615-2.406a4 4 0 0 0-.282-.066zM615.638 1621.2c-18.751-25.948 1.628 23.636-23.741-16.598-18.5-29.28-33.407-39.274-40.123-42.509 35.611 52.046 74.045 102.504 116.143 149.302 12.104 13.394 24.564 26.612 37.64 38.866 2.142.119 4.297.293 6.471.55 21.318 2.519 31.921-.275 36.671-2.466-24.732-12.421-68.776-64.386-133.787-157.928 9.866 22.649 17.21 53.548.726 30.783M514.687 1191.483c-8.665-17.086-16.97-34.318-25.03-51.706-8.257-18.641-16.844-37.486-20.928-57.582-.868-5.355-2.238-14.422 3.086-17.859-7.916.631-20.865 6.531-6.478 41.954 19.608 48.279 41.233 112.65 86.494 177.524 39.983 57.309 79.959 109.507 88.74 120.904-25.342-36.345-48.857-73.98-71.141-112.277-19.053-32.762-37.753-67.063-54.743-100.958" style="fill:#bcbcbc"/><path d="M298.227 1216.493c39.709 71.382 55.835 155.895 94.021 201.172 27.692 32.751 44.858 5.755 52.222-11.629.88-3.637 1.467-7.604 1.673-11.948 1.094-22.524-7.845-50.847-26.57-84.289 4.678 27.537 20.162 129.038-15.245 78.347-40.707-58.355-30.15-92.024-73.903-155.422-43.754-63.346-36.978-109.883-66.392-139.297-23.679-23.68-12.094-108.925-6.676-141.269 3.261-35.782 8.301-71.417 16.142-106.451q.315-1.41.633-2.784c.331-1.45.648-2.902.989-4.35-.12.543-.229 1.088-.348 1.632.131-.546.263-1.095.395-1.631l.525-2.994c.072-.271.149-.548.222-.819q-.116.41-.232.819a884 884 0 0 1 15.403-52.177 850.7 850.7 0 0 1 78.183-170.479c-11.466 12.168-42.537 47.473-68.522 98.013 24.267-50.424 83.515-167.819 134.78-226.857 15.345-17.664 27.444-31.34 37.04-41.859a221 221 0 0 1-3.826-7.38c-19.192 21.201-139.294 157.38-190.893 299.848-25.73 88.719-46.539 230.951-46.539 289.194.001 73.903 27.209 121.176 66.918 192.61" style="fill:#d8d8d8"/><path d="M226.854 1120.226c4.509 18.638 17.103 52.074 36.419 96.695 28.886 66.449 64.528 138.679 77.364 161.209q.74 1.298 1.499 2.601l.24.413a396 396 0 0 0 3.278 5.513l.176.288a351 351 0 0 0 1.686 2.742 302 302 0 0 0 1.882 2.985q.803 1.258 1.617 2.509l.251.383a252 252 0 0 0 3.48 5.188l.215.314q.856 1.239 1.724 2.463l.272.383q.876 1.232 1.764 2.445l.179.242q.911 1.242 1.835 2.462l.046.061a193 193 0 0 0 4.187 5.321q.948 1.162 1.906 2.292l.043.051q.962 1.134 1.934 2.231l.174.198a135 135 0 0 0 4.098 4.416l.208.212a106 106 0 0 0 4.006 3.889l.256.236q.969.884 1.944 1.724l.284.243c.664.566 1.329 1.12 1.996 1.653l.11.086a70 70 0 0 0 2.003 1.538l.163.122a65 65 0 0 0 2.302 1.616q.983.66 1.97 1.264.135.082.271.162a48 48 0 0 0 4.104 2.222q.142.069.283.136a41 41 0 0 0 2.312.995 37 37 0 0 0 1.991.723q.105.033.212.066.982.316 1.964.565l.176.047c.664.164 1.327.299 1.991.416l.356.062q.974.16 1.948.249.169.014.338.026c.672.052 1.343.086 2.014.087.092 0 .184-.005.277-.006q.548-.004 1.096-.031c.171-.009.342-.026.513-.039q.433-.03.865-.075.286-.034.572-.073.404-.053.808-.119.296-.05.592-.108a25 25 0 0 0 2.18-.522q.29-.081.578-.171.412-.131.825-.277c.181-.063.363-.124.544-.192.304-.114.607-.239.91-.366.151-.063.303-.121.455-.188q.68-.298 1.36-.64c10.178-5.107 22.155-14.858 26.575-33.125-7.364 17.384-24.53 44.381-52.222 11.629-38.186-45.277-54.311-129.79-94.021-201.172-39.709-71.434-66.917-118.707-66.917-192.61 0-58.243 20.809-200.475 46.539-289.194a517 517 0 0 0-2.06 5.769c-53.549 153.621-62.927 322.062-48.94 379.766M273.993 843.532" style="fill:#bcbcbc"/><path d="M275.169 838.573c-.135.551-.27 1.115-.404 1.676-4.731 21.783-8.153 43.813-10.754 65.948.425 18.529 2.501 77.964 10.633 66.054 9.665-14.077-2.416-6.723 17.701-2.364 14.077 3.047 23.899-20.065 28.521-46.065 1.996-11.083 2.994-22.69 2.994-33.038 0-34.562 15.548-146.546 74.849-239.043 56.6-88.462 111.818-126.665 123.022-153.847-5.038-4.797-10.689-10.351-16.628-16.275 1.477 7.507-2.446 21.41-28.498 45.585-45.96 42.545-128.582 145.495-148.699 250.073-20.117 104.63-23.637 232.845-36.715 166.978s-6.881-85.511-16.546-56.307c-8.451 25.611-3.656-31.383 3.77-62.02a922 922 0 0 0-2.454 8.677c-.087.323-.179.652-.266.975z" style="fill:#bcbcbc"/><path d="M323.859 890.783c0 10.348-.998 21.956-2.994 33.038-4.622 26-14.444 49.112-28.521 46.065-20.117-4.36-8.036-11.713-17.701 2.364-8.132 11.91-10.208-47.524-10.633-66.054-2.33 19.829-4.01 39.74-5.375 59.633-1.094 17.326-1.818 34.684-1.428 52.031.097 1.979.286 5.967.39 7.946.748 20.741 13.727 36.018 30.629 46.74 2.115 1.332 4.367 2.615 6.513 3.661l.176.046-.043.021c5.399 2.295 9.921 4.917 13.824 8.018.823.647 1.658 1.36 2.471 2.11a40 40 0 0 1 2.245 2.245c.678.73 1.452 1.563 2.219 2.521.685.857 1.352 1.76 2.041 2.761l.226.344c3.577-5.474 7.597-9.742 11.798-13.052-11.144-15.961-11.822-36.023-11.669-43.155l-9.275-.142c-16-.021-29.011-13.043-29.011-29.048 0-16.049 13.031-29.106 29.049-29.106q.447 0 .891.013l4.764.073c9.363-74.453 26.635-145.072 51.373-209.926 20.091-52.669 45.135-101.728 74.439-145.813 45.162-67.944 86.656-103.466 97.426-112.106-3.775-2.824-9.332-7.816-15.951-14.118-11.204 27.182-66.422 65.385-123.022 153.847-59.303 92.497-74.851 204.481-74.851 239.043" style="fill:#a0a0a0"/><path d="M337.727 1011.865c-.035.335-.07.67-.116 1.003-.035.25-.078.497-.119.746q-.1.61-.225 1.213a28 28 0 0 1-.48 1.938q-.102.365-.211.726c-.128.409-.269.813-.414 1.216-.076.211-.147.423-.228.632-.195.503-.407.997-.628 1.487-.045.1-.084.203-.131.302q-.413.88-.882 1.731c-.087.159-.185.312-.275.469l-.084.143c6.77.792 12.65.115 17.263-1.016a23.9 23.9 0 0 0 3.91-11.463c-2.765 1.216-8.053 2.384-17.38.873M325.428 985.025c.295.206.578.426.864.642.148.112.301.218.446.332q.75.588 1.457 1.22c.076.068.146.142.222.211q.588.537 1.145 1.104c.154.158.301.323.452.484.244.261.488.52.722.79 2.168-1.623 4.882-2.859 8.061-3.432a23.9 23.9 0 0 0-7.666-1.263z" style="fill:#d8d8d8"/><path d="M333.935 1023.47c-.207.354-.415.708-.637 1.053-.128.2-.264.395-.398.591q-.345.512-.711 1.01-.226.303-.461.602a30 30 0 0 1-1.258 1.505q-.42.465-.861.912c-.163.167-.323.336-.491.499-.349.339-.711.666-1.078.988-.123.108-.24.222-.365.328q-.747.635-1.539 1.219c-.113.084-.233.159-.348.241-.357.256-.714.512-1.084.752l6.464.099c8.349 0 15.724-4.304 20.029-10.813-4.612 1.129-10.492 1.805-17.262 1.014" style="fill:#a0a0a0"/><path d="M290.611 1015.478c9.35 12.396 14.235-1.366 20.958 9.507 1.955 3.198 4.583 4.855 7.347 5.659a24 24 0 0 0 9.247-7.49c-4.343 1.754-9.94 2.467-12.497-3.737-4.517-10.925-12.921 1.628-19.644-14.182-4.104-9.759 1.691-16.193 6.76-19.703-6.449 1.668-11.855 5.961-15.021 11.665-1.519 5.229-1.87 12.032 2.85 18.281" style="fill:#d8d8d8"/><path d="M308.789 1032.926c3.478 0 6.757-.706 9.746-2.097.13-.057.253-.125.381-.185-2.764-.804-5.393-2.46-7.347-5.659-6.723-10.873-11.608 2.889-20.958-9.507-4.719-6.249-4.369-13.052-2.851-18.28a24 24 0 0 0-3.02 11.678c0 13.261 10.788 24.05 24.049 24.05" style="fill:#a0a0a0"/><path d="M1217.518 1609.807c11.443-12.463 21.544-26.111 29.711-40.932-5.285 5.786-10.417 11.673-15.547 17.55-5.872 6.727-11.74 13.442-17.828 19.982-5.662 6.078-11.427 12.084-17.665 17.393-2.944 2.334-6.336 5.256-9.962 5.975-4.212.62-3.347-6.253-3.226-9.009-2.242 5.744-1.961 12.405 4.739 11.338a13.5 13.5 0 0 0 2.111-.526c11.03-4.397 19.614-13.488 27.667-21.771M1528.285 1068.391c3.854 9.191-6.422 33.825-10.267 43.451-9.13 22.021-20.016 43.291-30.575 64.662-10.426 20.686-22.053 43.135-33.049 63.548-31.707 58.85-65.254 116.859-101.024 173.333 2.015-2.834 4.003-5.686 5.993-8.538 19.911-28.526 38.635-57.886 56.595-87.691 24.527-40.803 47.99-83.107 69.355-125.673 8.665-17.086 16.969-34.318 25.031-51.706 7.844-17.526 15.681-35.253 20.208-53.997 1.198-5.921 3.73-17.516-2.385-21.448-.155-.1-.291-.218-.458-.307-.813-.38-1.712-.586-2.679-.652-13.775-.939-41.957 28.277-50.007 36.762a380 380 0 0 1 12.808-11.692c14.43-12.55 35.701-28.819 40.454-20.052M1761.932 1256.476c-2.269 9.1-4.837 18.13-7.628 27.083-8.256 26.882-17.87 53.329-28.227 79.468-15.161 37.355-30.979 75.507-49.749 111.263-18.769 36.055-40.642 70.48-63.129 104.302-10.031 14.973-21.548 31.719-32.07 46.214-36.063 50.813-77.125 99.851-116.323 147.166 79.108-80.4 146.421-172.618 199.527-272.136 17.762-32.712 35.789-66.622 51.275-100.481 10.313-22.88 19.437-46.304 27.439-70.09 7.946-23.789 15.018-47.968 19.376-72.694zM782.481 1609.808c8.054 8.283 16.636 17.374 27.668 21.771.783.259 1.498.432 2.153.533 6.674 1.036 6.924-5.633 4.696-11.345.115 2.75.993 9.63-3.227 9.01-3.624-.718-7.019-3.641-9.962-5.975-6.238-5.309-12.003-11.315-17.665-17.393-6.12-6.574-12.018-13.325-17.921-20.088-5.099-5.842-10.202-11.692-15.455-17.444 8.17 14.82 18.27 28.468 29.713 40.931M471.815 1064.336c-5.324 3.438-3.954 12.504-3.086 17.859 4.085 20.095 12.671 38.941 20.928 57.582 8.061 17.389 16.365 34.62 25.03 51.706 16.99 33.894 35.69 68.195 54.743 100.958 22.284 38.297 45.799 75.932 71.141 112.277 2.016 2.891 4.019 5.792 6.059 8.666-33.265-52.437-64.441-106.242-94.233-160.718-13.366-24.647-27.252-51.127-39.841-76.163-10.559-21.372-21.445-42.641-30.575-64.662-3.825-9.576-14.126-34.266-10.267-43.451 4.77-8.791 26.173 7.616 40.612 20.189a376 376 0 0 1 12.651 11.556c-7.99-8.427-36.19-37.654-49.969-36.765-.981.063-1.895.268-2.717.656-.172.092-.317.207-.476.31"/><path d="M257.794 1216.844c-5.336 3.138-19.986 12.082-28.271 20.367-12.747 12.747-14.796 90.24 62.145 237.467 36.422 69.694 82.105 142.006 128.633 203.614 41.788 55.332 78.034 93.678 96.959 102.576 18.412 8.656 38.233 12.368 56.319 12.368 20.543 0 38.847-4.79 50.293-12.562 16.51-11.21 49.84-29.355 87.569-24.896 28.716 3.391 39.668-2.349 43.143-5.102 4.228 1.252 8.649 1.878 13.171 1.878 8.602 0 17.561-2.247 26.203-6.668 19.35-9.9 35.198-29.535 42.392-52.524 7.552-24.134-12.669-80.847-25.395-112.504-19.238-47.859-41.795-90.769-53.346-107.03-20.886-41.717-48.356-92.309-78.702-144.87-35.106-60.805-69.859-116.972-97.859-158.153a1213 1213 0 0 0-4.419-6.454c-1.388-2.264-51.306-83.465-90.705-122.864-20.535-20.535-48.84-27.771-73.869-18.884-21.061 7.478-35.641 24.75-41.148 48.201-6.11-.879-22.195-1.961-37.129 7.527-10.189-14.646-10.843-33.67-10.736-40.188l8.091.124c16.017 0 29.049-13.031 29.049-29.049 0-16.049-13.031-29.106-29.011-29.105l-11.701-.179c21.268-168.336 79.614-284.841 124.951-353.048 47.001-70.71 89.792-105.829 97.666-111.988.829.295 1.931.508 3.402.508 5.183 0 14.874-2.631 32.763-13.543 1.799-1.095 4.116-2.563 6.798-4.261 121.671-77.054 258.632-116.124 407.078-116.124h.331c154.429-2.898 296.604 36.135 422.581 116.003 2.646 1.678 4.932 3.126 6.711 4.211 22.657 13.793 32.175 14.351 36.045 13.093 7.597 5.989 49.738 40.739 95.542 108.737 46.228 68.628 105.685 186.059 127.197 356.411l-11.664.178c-16.018 0-29.049 13.057-29.049 29.106 0 16.018 13.031 29.049 29.087 29.048l8.053-.123c.107 6.518-.547 25.542-10.736 40.188-14.933-9.488-31.018-8.406-37.128-7.527-5.507-23.451-20.087-40.724-41.148-48.201-25.028-8.886-53.334-1.65-73.869 18.884-39.387 39.387-89.286 120.548-90.704 122.862a1213 1213 0 0 0-4.421 6.456c-28 41.182-62.753 97.348-97.859 158.153-30.346 52.561-57.817 103.154-78.703 144.871-11.551 16.261-34.108 59.171-53.346 107.029-12.726 31.658-32.947 88.371-25.395 112.504 7.194 22.989 23.041 42.624 42.392 52.524 8.643 4.422 17.6 6.668 26.203 6.668 4.522 0 8.944-.626 13.171-1.878 3.474 2.753 14.426 8.494 43.143 5.102 37.724-4.457 71.058 13.686 87.569 24.896 11.447 7.773 29.748 12.563 50.293 12.562 18.084 0 37.909-3.712 56.319-12.367 18.925-8.897 55.171-47.244 96.959-102.576 46.528-61.608 92.21-133.92 128.633-203.614 76.941-147.228 74.892-224.72 62.145-237.467-8.285-8.285-22.933-17.228-28.27-20.367 13.328-30.886 30.001-71.739 35.799-95.441 7.402-30.54 7.912-89.214 1.329-153.125-5.66-54.949-18.999-139.364-50.403-229.466-28.587-82.019-80.494-161.964-119.003-214.587-37.535-51.291-69.978-87.296-76.348-94.26.258-.86.422-1.975.292-3.369-.663-7.124-8.255-16.205-22.565-26.988-1.491-1.125-3.556-2.746-6.169-4.798-21.72-17.054-79.415-62.354-165.223-104.402-108.106-52.974-219.917-81.091-332.383-83.57h-.289c-115.665.228-230.841 27.624-342.328 81.429-88.432 42.678-147.689 89.201-169.996 106.714-2.614 2.052-4.679 3.673-6.166 4.795-22.194 16.67-23.559 26.075-22.368 30.224-14.205 15.555-143.251 159.463-195.318 308.813-31.404 90.102-44.743 174.517-50.403 229.466-6.583 63.911-6.073 122.585 1.329 153.124 4.566 18.886 16.612 50.995 35.797 95.441m240.213-817.93c155.441-122.036 331.536-186.726 509.242-187.076h.229c172.673 3.808 343.694 68.438 494.573 186.906 2.635 2.069 4.716 3.703 6.247 4.858 22.622 17.046 20.738 24.321 20.396 25.185l-.111.07-.241.518c-.067.144-6.223 13.343-13.026 23.215l-.028-.032a207 207 0 0 0-.925-1.053l-.135-.153a273 273 0 0 0-2.48-2.765l-.118-.13a327 327 0 0 0-3.114-3.373l-.143-.153a390 390 0 0 0-3.803-4l-.306-.318a473 473 0 0 0-2.284-2.346 447 447 0 0 0-2.222-2.249l-.161-.161a433 433 0 0 0-5.096-5.037l-.316-.308a499 499 0 0 0-2.628-2.535l-.422-.404a521 521 0 0 0-2.753-2.613l-.454-.427a536 536 0 0 0-2.95-2.752l-.36-.332a519 519 0 0 0-3.241-2.972l-.106-.096a587 587 0 0 0-3.404-3.067l-.276-.248a573 573 0 0 0-3.461-3.064l-.513-.451a591 591 0 0 0-3.518-3.058l-.608-.524a617 617 0 0 0-3.671-3.133l-.577-.487a648 648 0 0 0-3.917-3.281l-.397-.328a619 619 0 0 0-4.23-3.474l-.071-.058a635 635 0 0 0-4.376-3.525l-.514-.411a665 665 0 0 0-4.34-3.427l-.702-.55a633 633 0 0 0-4.424-3.423l-.761-.583a666 666 0 0 0-4.618-3.499l-.642-.48a649 649 0 0 0-10.374-7.608l-.373-.269a688 688 0 0 0-5.22-3.705q-.37-.262-.744-.523a648 648 0 0 0-5.214-3.616l-.893-.613a658 658 0 0 0-5.341-3.619l-.874-.584a657 657 0 0 0-5.601-3.706l-.64-.417a704 704 0 0 0-6.055-3.91c-40.097-25.569-83.087-47.113-128.047-64.187a712 712 0 0 0-19.386-7.042c-64.741-22.462-133.473-35.783-204.287-39.594l-2.634-.085v.012c-67.066-3.21-132.534 1.643-195.255 14.428a728 728 0 0 0-44.07 10.408 715 715 0 0 0-102 35.935 705 705 0 0 0-27.357 12.76 702 702 0 0 0-7.056 3.522 697 697 0 0 0-38.068 20.759 678 678 0 0 0-4.173 2.471c-.45.268-.894.537-1.341.805q-1.39.833-2.768 1.667c-.533.323-1.06.646-1.59.969a672 672 0 0 0-4.112 2.528 711 711 0 0 0-6.359 3.991q-.793.504-1.582 1.007-1.205.771-2.399 1.542-.729.469-1.453.938-1.365.886-2.716 1.773c-.354.232-.711.464-1.063.696q-1.875 1.233-3.719 2.465c-.251.167-.497.334-.747.502q-1.467.982-2.916 1.962c-.436.295-.866.59-1.299.884a613 613 0 0 0-9.388 6.508l-1.394.986q-1.046.743-2.081 1.484l-1.335.956q-1.082.778-2.151 1.555l-1.192.864q-1.328.968-2.636 1.933l-.629.461q-1.62 1.196-3.209 2.385l-.902.678c-.755.567-1.509 1.133-2.254 1.697l-1.157.88q-.977.743-1.943 1.482l-1.215.935q-.922.71-1.833 1.417l-1.213.944q-.904.705-1.797 1.407-.583.457-1.16.913-.915.722-1.819 1.442l-1.077.857q-.987.79-1.961 1.574l-.857.69a617 617 0 0 0-5.474 4.476l-.811.674c-.61.506-1.219 1.012-1.819 1.514l-.99.831q-.803.674-1.595 1.344-.509.43-1.013.859-.766.651-1.52 1.296l-.99.848q-.759.653-1.506 1.299l-.935.809q-.775.673-1.536 1.339l-.831.727q-.882.775-1.747 1.54l-.556.491q-1.142 1.013-2.252 2.008l-.402.362q-.899.807-1.776 1.601l-.731.665-1.392 1.268-.798.732q-.639.586-1.264 1.165l-.801.742-1.223 1.138-.753.705q-.613.575-1.215 1.143l-.708.669q-.627.594-1.24 1.179l-.604.576q-.796.761-1.568 1.506l-.207.199q-.885.855-1.738 1.686l-.41.401q-.63.616-1.242 1.218l-.572.565-1.028 1.018-.594.592q-.477.474-.941.941l-.595.598-.891.9-.555.562-.9.918-.48.491a387 387 0 0 0-1.32 1.359q-1.296 1.341-2.465 2.572l-.302.319-.824.872-.38.405-.689.736-.389.418-.623.671-.363.393a211 211 0 0 0-.918.999l-.603.661-.244.268-.684.757-.107.118-.744.83-.057.064-.611.687-.153.174-.446.507-.168.192-.234.267c-6.85-9.886-13.063-23.242-13.13-23.388l-.465-.951c-.328-2.053.378-9.492 20.566-24.655 1.524-1.157 3.605-2.791 6.241-4.86m1270.532 903.457c-5.838 32.296-21.792 88.004-64.638 169.992-36.298 69.457-81.824 141.521-128.191 202.917-40.705 53.898-77.144 92.624-95.096 101.063-37.213 17.497-81.751 13.724-101.676.194-15.056-10.223-43.667-26.001-77.167-26.431 11.732-11.521 22.745-23.54 33.575-35.794 28.005-31.848 54.317-65.322 79.221-99.798 12.251-16.96 24.158-34.163 35.755-51.538.518-.776 1.042-1.549 1.558-2.325a1940 1940 0 0 0 15.461-23.614c10.98-16.651 24.218-38.657 34.703-55.699 7.096-12.297 18.967-32.36 25.993-44.809l21.122-38.322.012.121c2.614 25.887 17.94 38.9 30.682 45.295.917.463 1.84.867 2.766 1.237 3.696 1.477 7.466 2.227 11.315 2.226 3.373 0 6.804-.573 10.29-1.706 18.368-5.965 38.281-27.616 59.484-64.774 12.727-22.34 47.74-93.242 76.491-159.135 5.553 3.3 19.212 11.745 26.742 19.275 4.336 4.337 8.34 24.326 1.598 61.625m-517.237 445.974c24.744-12.427 68.817-64.434 133.877-158.058 10.997-15.825 22.593-32.838 34.797-51.051 2.501-3.733 5.023-7.507 7.576-11.34 41.983-63.056 93.974-157.33 135.683-246.031 16.494-35.077 39.571-86.832 54.157-130.881 5.677-17.145 10.064-33.117 12.28-46.489 1.434-8.656 1.962-16.224 1.333-22.307a93 93 0 0 0-.914-6.516c7.914-1.208 33.556-2.792 49.146 23.449q-.186.35-.365.763c-.183.375-.353.761-.528 1.144-.115.25-.235.496-.346.75-.177.403-.341.814-.509 1.224-.104.254-.215.504-.315.761-.159.406-.305.819-.456 1.23-.098.267-.202.53-.296.8a57 57 0 0 0-.676 2.065c-4.583 14.924-12.161 33.815-22.161 55.539-17.576 38.182-42.661 85.146-72.309 134.932-4.041 6.787-7.7 13.383-10.992 19.792-4.848 9.44-8.888 18.467-12.102 27.06-6.888 18.415-10.013 34.849-9.318 49.143.062 1.297.164 2.553.285 3.791l-21.587 38.141c-7.146 12.336-19.259 32.29-26.488 44.494-3.77 6.001-16.266 25.854-20.217 32.138-4.133 6.728-10.695 16.443-15.086 23.123-4.485 6.702-10.759 16.471-15.327 22.96-.719 1.039-1.447 2.075-2.168 3.114-46.16 66.483-95.576 131.884-153.855 188.178-2.134.119-4.281.292-6.446.547-21.319 2.519-31.923-.274-36.673-2.465m-82.88-56.476c-1.461-4.67-1.818-11.045-1.114-18.961 1.828-20.544 10.825-51.498 26.377-90.186a857 857 0 0 1 17.034-39.437c-.194.518-.391 1.041-.575 1.543-6.582 17.964-5.84 22.852-2.702 24.664.626.362 1.311.58 2.104.58 1.153 0 2.538-.47 4.298-1.618 3.092-2.016 7.35-6.145 13.607-13.634 8.661-10.367 19.971-25.799 33.615-45.868 28-41.182 62.753-97.348 97.859-158.153s66.371-118.986 88.035-163.825c10.557-21.85 18.267-39.361 22.915-52.045 1.922-5.247 3.216-9.371 4.012-12.636 1.928-7.914.912-10.744-1.31-12.027-1.637-.946-3.676-.902-6.992 1.437-1.017.718-2.154 1.65-3.437 2.838q1.462-2.096 2.959-4.221c16.232-23.03 35.394-48.185 52.507-65.298 9.178-9.178 19.999-15.508 31.33-18.716 12.322-3.488 25.248-3.282 37.33 1.008 22.449 7.971 36.94 28.159 39.757 55.388 2.903 28.059-21.635 99.875-67.32 197.034-41.612 88.494-93.463 182.521-135.32 245.388-44.691 67.125-80.602 117.525-109.784 154.081-31.398 39.333-54.394 61.634-68.347 66.285-11.328 3.775-24.446 2.335-36.939-4.056-18.182-9.301-33.097-27.83-39.899-49.565m252.208-514.624c36.145-53.543 46.777-61.255 49.272-62.347.18 1.611-.231 6.89-6.554 23.137-4.303 11.056-11.345 27.191-22.804 50.708-21.521 44.168-52.046 100.833-85.95 159.558s-67.716 113.492-95.206 154.214c-14.006 20.749-24.18 34.612-31.535 43.877a278 278 0 0 1-3.374 4.171c-9.163 11.097-12.992 13.698-14.364 14.299-.252-2.257.657-11.722 17.372-48.474 3.33-7.323 7.284-15.722 11.986-25.371 21.521-44.168 52.046-100.834 85.95-159.558s67.717-113.492 95.207-154.214m316.099 39.672c-28.886 66.451-64.529 138.682-77.365 161.212-20.217 35.432-50.031 74.782-77.264 61.028-10.208-5.123-22.233-14.92-26.616-33.311-.855-3.586-1.424-7.493-1.627-11.762-1.095-22.54 7.86-50.893 26.617-84.37a390 390 0 0 1 5.097-8.828c46.709-78.436 82.206-150.047 94.955-191.564q.291-.953.617-1.887c.048-.137.102-.271.151-.408.173-.482.347-.964.532-1.438.094-.238.196-.47.293-.706.15-.365.296-.734.454-1.093.122-.279.254-.55.381-.825.142-.308.28-.62.427-.923q.197-.37.381-.733c.16-.313.314-.62.487-.909l.06-.106.019-.039.286-.522v-.015q.09-.159.162-.299a33 33 0 0 1 1.672-2.658c.619-.9 1.216-1.708 1.825-2.47.606-.757 1.204-1.41 1.988-2.254a23 23 0 0 1 1.938-1.891l.153-.141a22 22 0 0 1 2.062-1.8c3.533-2.807 7.661-5.199 12.619-7.31.039-.015.099-.044.147-.064l.002.003.037-.02c.171-.075.373-.172.627-.324l-.009-.015c4.764-2.499 9.038-5.386 13.238-8.684 12.906-10.138 23.633-24.842 24.653-41.672l.339-4.082c.409-9.373.217-18.917-.141-28.27-.831-15.352-1.919-30.712-3.322-46.046-3.023-33.028-7.57-65.929-14.436-98.348l-.154-.727a673 673 0 0 0-2.911-13.088l-.012-.052c-.073-.312-.139-.624-.213-.936l.1.468.003.013c4.884 22.25 8.385 44.762 11.037 67.382 2.315 19.75 3.988 39.581 5.347 59.394 1.094 17.326 1.818 34.684 1.428 52.031-.091 1.981-.292 5.964-.39 7.946l-.403 3.916c-1.796 21.075-18.933 37.399-36.89 46.561-5.392 2.293-9.909 4.914-13.796 8.002a27 27 0 0 0-2.423 2.115 28 28 0 0 0-2.297 2.243c-.825.889-1.513 1.639-2.17 2.462l-.019.024-.035.041-.052.068a24.5 24.5 0 0 0-1.992 2.695c-.083.111-.147.224-.226.336-3.576-5.471-7.595-9.738-11.794-13.047 11.145-15.961 11.822-36.023 11.669-43.155l9.275-.142c16-.021 29.011-13.043 29.011-29.048 0-16.049-13.031-29.106-29.049-29.106q-.447 0-.892.013l-4.762.073c-9.495-75.538-27.129-147.111-52.449-212.75-20.464-53.051-45.958-102.373-75.773-146.598-43.741-64.88-84.269-99.807-95.011-108.501 3.78-2.828 9.344-7.826 15.971-14.137 5.044-4.803 10.7-10.362 16.645-16.293 4.271-4.26 8.688-8.71 13.137-13.211 1.241-1.256 2.335-2.362 3.293-3.328 24.734 25.214 47.943 51.944 69.377 80.049 54.974 71.96 98.152 152.864 127.573 238.515 4.874 14.244 9.35 28.624 13.486 43.103.844 2.956 1.695 5.909 2.509 8.874-.599-2.281-1.231-4.554-1.847-6.83q-.22-.816-.442-1.634c-4.003-14.676-8.354-29.26-13.115-43.713-19.653-59.61-46.055-116.938-78.372-170.715-32.761-54.514-71.611-105.37-115.713-151.235.243-.273.485-.549.727-.836l.036.043.705-.938q.598-.74 1.192-1.528l.5-.667-.001-.066c3.473-4.733 6.814-10.42 9.45-15.27a224 224 0 0 0 3.818-7.352c8.714 9.613 39.436 44.23 74.68 92.397 37.471 51.209 87.673 128.407 116.4 207.98.631 1.747 1.265 3.494 1.875 5.243 53.544 153.623 62.923 322.064 48.938 379.762-4.625 18.908-17.218 52.347-36.418 96.698m-87.931-194.472a23.9 23.9 0 0 1-3.907-11.47 24 24 0 0 1-.071-1.758c0-10.607 6.873-19.629 16.406-22.844a24 24 0 0 1 7.681-1.262l5.67-.086c-.288.2-.563.416-.842.626-.155.116-.314.227-.466.346q-.75.587-1.458 1.22c-.066.059-.127.123-.192.183q-.604.55-1.176 1.133c-.153.157-.298.32-.448.48-.241.258-.484.515-.716.781q-.06.072-.118.142-.238.281-.469.567a29 29 0 0 0-1.167 1.528q-.342.482-.664.978-.198.3-.391.606c-.226.366-.44.739-.65 1.115-.098.176-.202.349-.297.527a29 29 0 0 0-.836 1.693q-.031.076-.063.151a29 29 0 0 0-.657 1.602c-.075.199-.14.401-.21.602-.14.399-.276.799-.399 1.204-.071.233-.134.468-.199.702a28 28 0 0 0-.671 3.075c-.039.24-.08.48-.112.722a28 28 0 0 0-.141 1.3c-.019.208-.044.416-.058.625q-.068.966-.07 1.942c0 .673.028 1.342.074 2.007.015.217.042.431.062.647l.032.34c.034.333.069.665.115.996.035.252.079.502.12.753a28 28 0 0 0 .397 1.976q.139.579.301 1.15c.072.254.143.509.222.761.12.385.253.764.389 1.142.085.237.165.476.256.711.165.424.346.841.531 1.257.079.178.149.361.232.537q.397.846.847 1.663c.122.223.256.437.384.656l.045.075c.18.306.359.614.55.913.174.272.358.537.54.803.177.258.354.515.54.767q.304.413.624.814a30 30 0 0 0 1.254 1.485q.275.3.559.593c.259.27.517.539.786.799.174.168.357.328.536.492a29 29 0 0 0 3.237 2.566c.188.128.368.264.559.388l-6.426.098c-8.381.003-15.768-4.305-20.075-10.819m-371.424-599.046c-89.632-32.999-185.517-48.792-284.963-46.921h-.284c-95.678 0-187.897 16.424-274.094 48.816-69.237 26.019-115.783 55.496-135.659 68.083-2.662 1.686-4.961 3.142-6.725 4.216-20.756 12.66-28.779 13.094-31.19 12.74l-1.373-.714c-2.46-1.28-7.666-5.77-13.893-11.568-5.086-4.736-10.85-10.343-16.372-15.806-6.7-6.629-13.034-13.037-17.332-17.385a1513 1513 0 0 0-5.114-5.159 37 37 0 0 1-2.531-2.827l.002-.003.362-.418.077-.089.37-.426.138-.157.389-.444.169-.192.427-.483.203-.228.451-.506.229-.256.691-.769c.196-.217.393-.436.601-.664l.086-.095a314 314 0 0 1 2.23-2.425l.37-.399.603-.645.43-.459.628-.665.495-.523.614-.646a267 267 0 0 1 1.217-1.271l.569-.59.69-.714.621-.639q.347-.358.704-.721l.669-.682.719-.731.724-.731.734-.74.798-.797q.545-.545 1.107-1.102c.373-.37.747-.741 1.131-1.119l.798-.783.85-.833.82-.796c.297-.288.592-.576.895-.868l.839-.808.936-.898.882-.842.95-.903q.454-.43.915-.865l.992-.933q.463-.435.935-.875a582 582 0 0 1 1.989-1.848q.55-.508 1.109-1.021l.939-.863c.395-.362.798-.728 1.2-1.093.307-.28.611-.557.923-.839.444-.402.898-.81 1.35-1.217l.83-.747q1.083-.97 2.196-1.957l.797-.703c.498-.44.996-.88 1.504-1.325.328-.288.663-.579.994-.868.458-.4.914-.799 1.379-1.202l1.057-.914a665 665 0 0 1 2.499-2.146l1.371-1.168 1.151-.975a731 731 0 0 1 2.592-2.177q.725-.606 1.46-1.215.596-.495 1.197-.991.753-.621 1.516-1.246.592-.487 1.19-.975l1.628-1.322c.383-.31.762-.619 1.148-.93q.944-.76 1.901-1.525l.924-.74q1.423-1.134 2.877-2.28l.688-.539c.751-.589 1.503-1.18 2.266-1.773.374-.291.755-.584 1.132-.876q.94-.73 1.893-1.462.626-.48 1.258-.962.909-.695 1.828-1.394.669-.507 1.344-1.016.893-.675 1.797-1.353.7-.525 1.407-1.051a510 510 0 0 1 3.244-2.402 652 652 0 0 1 3.31-2.419q.961-.697 1.932-1.396.711-.513 1.428-1.027c.68-.487 1.368-.976 2.056-1.465q.682-.486 1.369-.973c.785-.555 1.579-1.111 2.373-1.668.367-.257.73-.514 1.099-.771a691 691 0 0 1 3.536-2.449l.544-.372a672 672 0 0 1 3.06-2.089c.426-.289.858-.578 1.286-.867q1.186-.801 2.386-1.604c.492-.329.99-.658 1.486-.988a546 546 0 0 1 3.835-2.53 712 712 0 0 1 3.853-2.505 617 617 0 0 1 6.168-3.932q.845-.532 1.695-1.065a685 685 0 0 1 2.34-1.456q.828-.515 1.663-1.03 1.229-.756 2.47-1.513l1.609-.982q1.353-.819 2.719-1.638c.47-.282.936-.564 1.408-.846a680 680 0 0 1 8.177-4.802c15.468-8.937 32.743-18.076 51.763-26.993 85.271-39.972 205.814-75.423 357.887-67.68l2.189.064c158.423 8.976 276.133 64.669 347.104 109.924a680 680 0 0 1 6.273 4.052l.495.322q2.945 1.929 5.814 3.85l.747.499a694 694 0 0 1 5.493 3.728l.852.585a666 666 0 0 1 5.255 3.653l.882.62a642 642 0 0 1 5.076 3.612l.839.604a692 692 0 0 1 4.968 3.617l.691.51a648 648 0 0 1 4.928 3.669l.479.362a639 639 0 0 1 4.871 3.706l.167.128a626 626 0 0 1 4.728 3.675l.524.41a623 623 0 0 1 4.354 3.456l.707.565a606 606 0 0 1 8.705 7.12l.792.662a585 585 0 0 1 7.975 6.787l.667.58a569 569 0 0 1 3.453 3.023l.52.461q1.622 1.436 3.182 2.838l.521.469a572 572 0 0 1 3.025 2.747l.598.547c.974.893 1.922 1.771 2.854 2.639l.704.656a502 502 0 0 1 5.764 5.471l.749.724a449 449 0 0 1 5.035 4.944l.664.665q.948.95 1.849 1.861l.682.693a421 421 0 0 1 3.736 3.851l.596.623c.496.52.97 1.022 1.434 1.514l.578.614q.664.708 1.282 1.374l.551.594a377 377 0 0 1 1.636 1.784q.516.567.988 1.091l.447.498a332 332 0 0 1 1.223 1.375l.662.752.34.39.574.662.125.145a39 39 0 0 1-2.661 2.971 1419 1419 0 0 0-5.105 5.15c-2.664 2.695-6.11 6.182-9.941 10.022-6.133 6.148-13.249 13.198-19.723 19.364-7.969 7.588-14.964 13.833-17.941 15.383l-.406.211-.122.136c-.795.328-7.614 2.325-32.037-12.543-1.74-1.062-4.009-2.5-6.635-4.165-20.472-12.984-68.425-43.386-140.336-69.861M355.18 1009.218c0 .597-.029 1.187-.072 1.773a23.9 23.9 0 0 1-3.91 11.463c-4.305 6.509-11.68 10.813-20.029 10.813l-6.464-.099c.37-.24.727-.497 1.084-.752.115-.082.234-.158.348-.241q.792-.586 1.539-1.219c.125-.106.242-.219.365-.328q.552-.481 1.078-.988c.167-.163.327-.333.491-.499q.44-.447.861-.912.25-.282.494-.569.392-.46.764-.936.234-.297.461-.602.366-.497.711-1.01c.133-.197.269-.391.398-.591.222-.345.43-.698.637-1.053l.084-.143c.091-.157.188-.31.275-.469q.47-.85.882-1.731c.046-.099.085-.202.131-.302.222-.49.434-.984.628-1.487.081-.208.151-.421.228-.632.145-.402.286-.806.414-1.216q.11-.36.211-.726a30 30 0 0 0 .48-1.938q.125-.603.225-1.213c.041-.248.084-.496.119-.746.046-.332.081-.667.116-1.003q.017-.168.032-.336c.02-.215.047-.429.062-.646a29 29 0 0 0 .074-2.007c0-.651-.027-1.299-.07-1.943-.014-.21-.04-.417-.058-.625a28 28 0 0 0-.141-1.298c-.033-.244-.074-.485-.113-.728a29 29 0 0 0-.375-1.919q-.135-.577-.293-1.148-.096-.356-.201-.71a29 29 0 0 0-.395-1.192c-.072-.204-.138-.411-.214-.614a30 30 0 0 0-.638-1.556c-.029-.065-.053-.132-.082-.197a30 30 0 0 0-.834-1.691c-.095-.179-.199-.351-.298-.527a29 29 0 0 0-.647-1.112c-.128-.206-.262-.408-.394-.611a30 30 0 0 0-.66-.973 27.667 27.667 0 0 0-1.166-1.527q-.232-.288-.472-.57l-.106-.128c-.234-.27-.478-.529-.722-.79-.151-.161-.297-.326-.452-.484a28 28 0 0 0-1.145-1.104c-.075-.069-.146-.143-.222-.211a29 29 0 0 0-1.457-1.22c-.146-.114-.298-.22-.446-.332-.286-.216-.569-.436-.864-.642l5.703.087c2.68 0 5.256.448 7.666 1.263 9.508 3.22 16.379 12.241 16.379 22.847m-67.42-12.02c3.166-5.705 8.572-9.997 15.021-11.665a24 24 0 0 1 6.005-.762h.012a29.526 29.526 0 0 1 1.672.064 24 24 0 0 1 2.018.227q.29.043.578.096.356.066.71.143.283.059.564.124.358.089.715.188c.18.049.362.096.541.15.246.074.49.157.733.239.168.057.337.109.504.17.268.097.534.205.799.312.139.056.28.107.419.167q.605.258 1.199.548c8.288 3.959 13.643 12.468 13.643 21.678q0 .89-.065 1.771a23.9 23.9 0 0 1-4.667 12.507 24 24 0 0 1-9.247 7.49c-.129.059-.251.127-.381.185-2.989 1.392-6.268 2.097-9.746 2.097-13.26 0-24.049-10.789-24.049-24.049a24 24 0 0 1 3.022-11.68m1403.453-12.427c2.093 0 4.125.271 6.062.778 6.468 1.691 11.884 6.019 15.031 11.766a24 24 0 0 1 2.953 11.562c0 13.261-10.789 24.049-24.049 24.049-3.478 0-6.757-.706-9.796-2.12-.109-.048-.211-.105-.319-.155a23.9 23.9 0 0 1-9.279-7.518 23.94 23.94 0 0 1-4.711-14.256c0-9.21 5.355-17.719 13.669-21.691q.59-.289 1.191-.545c.134-.057.27-.106.404-.16.269-.109.538-.218.81-.316.161-.058.324-.109.485-.163.249-.084.497-.168.748-.243.175-.052.352-.098.528-.146q.361-.101.725-.19c.183-.044.368-.082.552-.122q.36-.078.72-.145.284-.05.569-.094a24 24 0 0 1 1.305-.167 24 24 0 0 1 1.316-.095c.357-.016.714-.03 1.074-.03zM277.849 734.689c51.6-142.469 171.702-278.647 190.893-299.848.947 1.914 2.263 4.5 3.826 7.38 2.495 4.595 5.621 9.936 8.898 14.507l-.006.007.415.559q.378.519.758 1.021l1.922 2.539.048-.059c.191.226.383.44.575.658-24.63 25.681-47.684 52.857-68.921 81.376a841 841 0 0 0-46.987 70.094 850.7 850.7 0 0 0-78.183 170.479 884 884 0 0 0-15.403 52.177c.075-.274.156-.546.232-.819l.044-.155a866 866 0 0 1 2.454-8.677c4.075-14.217 8.48-28.337 13.266-42.325 40.801-119.137 108.659-228.804 196.946-318.568.961.969 2.06 2.081 3.306 3.342a2617 2617 0 0 0 13.17 13.243c5.939 5.924 11.59 11.478 16.628 16.275 6.619 6.302 12.176 11.294 15.951 14.118-10.769 8.641-52.263 44.163-97.426 112.106-29.303 44.085-54.348 93.144-74.439 145.813-24.738 64.854-42.01 135.473-51.373 209.926l-4.764-.073a29 29 0 0 0-.891-.013c-16.018 0-29.049 13.057-29.049 29.106 0 16.005 13.011 29.028 29.011 29.048l9.275.142c-.153 7.132.525 27.193 11.669 43.155-4.201 3.31-8.22 7.578-11.798 13.052l-.226-.344a48 48 0 0 0-2.041-2.761c-.767-.958-1.541-1.791-2.219-2.521a39 39 0 0 0-2.245-2.245 42 42 0 0 0-2.471-2.11c-3.902-3.101-8.424-5.723-13.824-8.018l.043-.021-.176-.046c-2.146-1.046-4.398-2.329-6.513-3.661-16.902-10.722-29.882-25.999-30.629-46.74-.103-1.978-.293-5.967-.39-7.946-.389-17.347.335-34.705 1.428-52.031 1.365-19.893 3.045-39.804 5.375-59.633 2.601-22.135 6.023-44.165 10.754-65.948l.009-.044c.118-.544.228-1.088.348-1.632-.341 1.447-.658 2.9-.989 4.35l-.139.61-.207.91q-.144.632-.287 1.263c-7.842 35.034-12.881 70.669-16.142 106.451-1.384 15.19-2.46 30.405-3.283 45.612-.359 9.356-.55 18.894-.142 28.27l.339 4.082c.332 5.484 1.798 11.049 3.997 16.11 6.763 15.008 19.584 26.499 33.897 34.244l-.01.017c.254.152.455.248.626.323l.038.021.002-.004c.048.021.108.05.148.065 4.957 2.111 9.085 4.503 12.628 7.318a37 37 0 0 1 2.18 1.861 34 34 0 0 1 1.967 1.968c.78.84 1.379 1.493 1.983 2.248a41 41 0 0 1 1.805 2.44c.557.836 1.084 1.626 1.55 2.454l.099.162c.167.25.311.511.407.735l.217.4c.142.214.268.465.455.834.278.511.53 1.115.797 1.754l.059.131c.823 1.695 1.576 3.647 2.36 6.123 12.748 41.515 48.245 113.126 94.954 191.561a385 385 0 0 1 5.144 8.912c18.726 33.441 27.664 61.765 26.57 84.289-.206 4.344-.793 8.311-1.673 11.948-4.42 18.267-16.398 28.017-26.575 33.125q-.68.342-1.36.64c-.152.066-.303.124-.455.188-.303.127-.606.252-.91.366-.181.068-.363.128-.544.192q-.412.146-.825.277-.289.088-.578.171a26 26 0 0 1-1.389.357 24 24 0 0 1-2.191.392q-.285.04-.572.073c-.288.032-.577.054-.865.075-.171.013-.342.03-.513.039q-.547.028-1.096.031c-.092.001-.184.007-.277.006-.671 0-1.342-.034-2.014-.087q-.169-.012-.338-.026a28 28 0 0 1-1.948-.249q-.178-.03-.356-.062a30 30 0 0 1-1.991-.416q-.088-.023-.176-.047a33 33 0 0 1-1.964-.565q-.106-.031-.212-.066a36 36 0 0 1-1.991-.723l-.343-.136a41 41 0 0 1-1.969-.859q-.142-.067-.283-.136a48 48 0 0 1-4.104-2.222l-.271-.162a57 57 0 0 1-2.282-1.475 62 62 0 0 1-1.99-1.405l-.163-.122a74 74 0 0 1-2.003-1.538l-.11-.086a82 82 0 0 1-1.996-1.653q-.143-.12-.284-.243a90 90 0 0 1-1.944-1.724l-.256-.236a106 106 0 0 1-4.006-3.889l-.208-.212q-.96-.986-1.913-2.012l-.282-.304a131 131 0 0 1-1.903-2.1l-.174-.198a149 149 0 0 1-1.934-2.231l-.043-.051a170 170 0 0 1-1.906-2.292l-.252-.308a171 171 0 0 1-2.082-2.61 193 193 0 0 1-1.853-2.403l-.046-.061a216 216 0 0 1-1.835-2.462l-.179-.242a215 215 0 0 1-2.036-2.828 263 263 0 0 1-1.724-2.463l-.215-.314q-.878-1.274-1.743-2.564l-.022-.033q-.863-1.29-1.715-2.591l-.251-.383q-.815-1.25-1.617-2.509l-.274-.43a330 330 0 0 1-1.608-2.555l-.148-.239a330 330 0 0 1-3.243-5.336l-.276-.464q-.744-1.253-1.473-2.504l-.24-.413a399 399 0 0 1-1.499-2.601c-12.836-22.53-48.479-94.76-77.364-161.209-19.317-44.621-31.91-78.057-36.419-96.695-13.987-57.704-4.609-226.144 48.936-379.768a664 664 0 0 1 2.065-5.767m482.676 756.327c4.719 9.684 8.685 18.11 12.023 25.452 16.678 36.681 17.587 46.136 17.335 48.393-1.369-.599-5.188-3.193-14.321-14.247a271 271 0 0 1-3.35-4.139c-7.361-9.266-17.554-23.151-31.602-43.962-27.49-40.722-61.302-95.49-95.206-154.214s-64.429-115.389-85.95-159.558c-11.488-23.576-18.536-39.734-22.837-50.792-6.293-16.182-6.701-21.445-6.521-23.053 2.496 1.091 13.128 8.804 49.273 62.347 27.49 40.722 61.302 95.49 95.206 154.214s64.429 115.39 85.95 159.559m-226.083-379.295c-3.332-2.358-5.377-2.403-7.019-1.455-2.217 1.28-3.234 4.103-1.32 11.982.795 3.272 2.091 7.41 4.023 12.681 4.648 12.685 12.357 30.195 22.914 52.045 21.665 44.84 52.93 103.021 88.035 163.825 35.106 60.805 69.859 116.971 97.859 158.153 13.644 20.068 24.954 35.5 33.615 45.868 6.35 7.601 10.639 11.736 13.742 13.719 1.694 1.083 3.04 1.533 4.162 1.533a4.1 4.1 0 0 0 2.104-.58c3.138-1.812 3.88-6.7-2.702-24.664-.185-.503-.382-1.028-.576-1.546a856 856 0 0 1 17.036 39.44c15.569 38.731 24.568 69.708 26.382 90.252.696 7.885.338 14.238-1.119 18.894-6.801 21.735-21.716 40.264-39.897 49.566-12.493 6.391-25.612 7.832-36.94 4.056-13.953-4.651-36.949-26.953-68.347-66.285-29.182-36.556-65.093-86.957-109.784-154.081-41.857-62.866-93.708-156.894-135.32-245.388-45.686-97.159-70.223-168.975-67.32-197.034 2.817-27.229 17.307-47.417 39.756-55.388 12.074-4.287 24.99-4.494 37.303-1.015 11.342 3.205 22.173 9.537 31.358 18.722 17.12 17.121 36.292 42.291 52.53 65.33q1.485 2.107 2.935 4.187c-1.273-1.176-2.4-2.102-3.41-2.817m-164.128-7.313c2.195 13.29 6.541 29.156 12.169 46.192 14.579 44.132 37.74 96.085 54.282 131.264 41.709 88.701 93.699 182.975 135.682 246.031 2.581 3.876 5.131 7.692 7.659 11.465 12.208 18.216 23.806 35.231 34.805 51.057 65.011 93.542 109.055 145.507 133.787 157.928-4.75 2.191-15.354 4.985-36.671 2.466a104 104 0 0 0-6.471-.55c-13.076-12.255-25.536-25.473-37.64-38.866-42.098-46.798-80.532-97.257-116.143-149.302a1926 1926 0 0 1-17.543-26.082c-8.847-13.046-21.312-32.971-29.79-46.495-2.049-3.277-5.364-8.44-7.283-11.73-7.954-13.47-20.509-33.912-28.118-47.54-3.873-6.847-12.816-22.639-18.186-32.129.121-1.238.224-2.494.285-3.791.703-14.463-2.507-31.116-9.564-49.793-3.104-8.215-6.954-16.823-11.544-25.808q-5.055-9.898-11.305-20.398c-29.602-49.709-54.656-96.606-72.23-134.761-10.041-21.801-17.649-40.759-22.247-55.731-.856-2.702-1.685-4.85-2.604-6.751-.277-.664-.566-1.339-.889-1.949 15.591-26.259 41.244-24.671 49.155-23.464a93 93 0 0 0-.914 6.516c-.628 6.063-.105 13.602 1.318 22.221m-74.215 367.954c-42.847-81.988-58.8-137.696-64.638-169.992-6.742-37.298-2.738-57.288 1.598-61.625 7.53-7.53 21.189-15.976 26.742-19.276 28.751 65.893 63.764 136.797 76.492 159.136 21.203 37.161 41.112 58.812 59.479 64.776 3.487 1.132 6.92 1.705 10.294 1.705 3.876 0 7.677-.762 11.399-2.261.897-.361 1.79-.752 2.678-1.201 12.757-6.402 28.097-19.43 30.694-45.352l.007-.068c5.232 9.491 13.984 25.379 17.787 32.273 4.234 7.987 16.002 27.917 20.639 35.933 3.995 6.896 9.897 17.075 14.104 23.758l18.062 29.443c5.398 8.449 13.265 20.554 18.716 29.035a2751 2751 0 0 0 9.625 14.41c11.625 17.287 23.485 34.46 35.666 51.41 34.391 47.856 71.358 93.916 112.919 135.635-33.559.389-62.223 16.196-77.299 26.432-19.924 13.529-64.463 17.301-101.676-.194-17.953-8.44-54.392-47.166-95.096-101.063-46.368-61.393-91.894-133.457-128.192-202.914"/><path d="M535.561 1771.631c-55.299-63.845-107.411-130.399-153.946-200.853-20.604-31.32-40.644-63.198-57.943-96.489-15.854-30.097-29.715-62.533-42.687-93.901-16.57-40.437-31.97-81.564-42.916-123.913l-.491.094c1.003 6.202 2.351 12.328 3.759 18.443 4.259 18.337 9.595 36.418 15.617 54.251 9.018 26.752 19.387 53.075 31.392 78.631 14.47 30.799 31.082 62.053 47.323 91.941 14.633 27.05 30.859 55.291 47.441 81.17 13.411 20.745 27.947 42.241 42.523 62.095 33.53 44.904 70.23 90.244 109.928 128.531"/></svg>