<svg width="116" height="58" viewBox="0 0 116 58" fill="none" xmlns="http://www.w3.org/2000/svg">
<path d="M8.9375 53.2817C8.8125 53.2817 8.66667 53.2192 8.5 53.0942C8.21875 52.8859 8.08854 52.6672 8.10417 52.4484C8.13021 52.2244 8.21875 51.9588 8.375 51.6567C8.45833 51.4901 8.50521 51.3651 8.52083 51.2817C8.97917 50.0317 9.50521 48.8494 10.1042 47.7401C10.6979 46.6255 11.2604 45.6463 11.7917 44.8026C12.6667 43.3442 12.8385 41.5526 12.3125 39.4276C11.8646 37.7088 10.8438 36.3442 9.25 35.3442C9.16667 35.3182 9.04687 35.2557 8.89583 35.1567C8.63021 35.0057 8.41667 34.8651 8.25 34.7401C8.08333 34.6151 8 34.4432 8 34.2192C8 33.9432 8.08854 33.7609 8.27083 33.6776C8.46354 33.5838 8.69792 33.5005 8.97917 33.4276L9.20833 33.3859C11.901 32.6672 14.4635 32.3026 16.8958 32.3026C17.0469 32.3026 17.25 32.3026 17.5 32.3026C17.75 32.3026 17.875 32.3026 17.875 32.3026C18.9271 32.3026 19.7708 31.8547 20.3958 30.9484C20.9062 30.1724 21.4219 29.3963 21.9375 28.6151C22.4479 27.839 22.9583 27.0682 23.4583 26.3026C25.0417 23.9015 26.651 21.4901 28.2917 19.0734C29.9427 16.6567 31.7188 14.3547 33.625 12.1567C33.9844 11.7557 34.3542 11.3755 34.7292 11.0109C35.1042 10.6515 35.5417 10.3651 36.0417 10.1567C36.2917 10.0317 36.5104 9.96924 36.7083 9.96924C37.2604 9.96924 37.6719 10.3755 37.9375 11.1776C38.1875 11.9276 38.2812 12.6359 38.2292 13.3026C38.1875 13.9588 38.1146 14.6099 38.0208 15.2609C37.4635 18.5422 36.7135 21.7192 35.7708 24.8026C34.8385 27.8755 33.8854 30.8963 32.9167 33.8651C32.6667 34.5474 32.4271 35.2192 32.2083 35.8859C32 36.5526 31.7812 37.2192 31.5625 37.8859C30.9896 39.6359 30.401 41.3703 29.7917 43.0942C29.1771 44.8286 28.5625 46.5734 27.9375 48.3234C27.9062 48.3911 27.8646 48.5005 27.8125 48.6567C27.7812 48.8078 27.7344 48.9536 27.6667 49.0942C27.6094 49.2453 27.5208 49.3234 27.3958 49.3234C27.2969 49.3234 27.1719 49.2869 27.0208 49.2192C26.8958 49.1463 26.8125 49.0734 26.7708 48.9901C26.7135 48.8911 26.7083 48.7713 26.75 48.6359C26.8021 48.4953 26.8594 48.3755 26.9167 48.2817C26.9688 48.0994 27.0052 47.9744 27.0208 47.9067C27.6458 45.3078 28.3594 42.7297 29.1667 40.1776C29.9844 37.6255 30.8125 35.1255 31.6458 32.6776C32.2135 31.0265 32.776 29.3599 33.3333 27.6776C33.8854 25.9849 34.4167 24.2817 34.9167 22.5734C35.0104 22.2557 35.1667 21.7192 35.375 20.9692C35.5833 20.2192 35.8021 19.3755 36.0417 18.4276C36.2917 17.4692 36.5 16.5213 36.6667 15.5734C36.8438 14.6151 36.9635 13.7817 37.0208 13.0734C37.0885 12.3547 37.0469 11.8599 36.8958 11.5942C36.8229 11.4849 36.7344 11.4067 36.625 11.3651H36.6042L36.4167 11.3234C36.2917 11.3234 36.1719 11.3599 36.0625 11.4276C35.9635 11.4849 35.901 11.5265 35.875 11.5526C35.5833 11.7765 35.3177 12.0265 35.0833 12.3026C34.8438 12.5838 34.6094 12.8547 34.375 13.1151C34.25 13.2713 34.125 13.4224 34 13.5734C33.875 13.7297 33.75 13.8807 33.625 14.0317C32.75 15.0057 31.8594 16.0526 30.9583 17.1776C30.0833 18.3338 29.2396 19.4901 28.4375 20.6567C27.6458 21.813 26.901 22.9172 26.2083 23.9692L25.3333 25.3234C24.6094 26.4224 23.8802 27.5265 23.1458 28.6359C22.4062 29.7505 21.651 30.8442 20.875 31.9276L20.7292 32.1567H21.0625C22.4375 32.2297 23.7135 32.3182 24.8958 32.4276C26.0885 32.5422 27.276 32.7349 28.4583 33.0109C28.5 33.0422 28.5521 33.0526 28.625 33.0526C28.7083 33.0526 28.776 33.0526 28.8333 33.0526C28.9583 33.0838 29.0677 33.1047 29.1667 33.1151C29.2604 33.1151 29.3542 33.1567 29.4375 33.2401C29.5052 33.2817 29.5521 33.3963 29.5833 33.5734C29.6094 33.8234 29.4844 33.9484 29.2083 33.9484C29.125 33.9484 29.0417 33.9432 28.9583 33.9276C28.875 33.9172 28.7812 33.8963 28.6875 33.8651L28.5208 33.8442C28.3229 33.7922 28.1146 33.7505 27.8958 33.7192C27.6719 33.6776 27.4427 33.6151 27.2083 33.5317C26.9167 33.4901 26.6094 33.438 26.2917 33.3651C25.9844 33.2817 25.6771 33.2297 25.375 33.1984C24.625 33.0734 23.9479 33.0109 23.3542 33.0109C20.9479 33.0109 19.25 34.0109 18.25 36.0109C17.8177 36.8599 17.375 37.6932 16.9167 38.5109C16.4688 39.3182 16.0104 40.1203 15.5417 40.9276C14.7188 42.3547 13.9062 43.8234 13.1042 45.3234C12.3125 46.8234 11.625 48.3963 11.0417 50.0526C10.8854 50.438 10.7083 50.813 10.5 51.1776C10.2917 51.5526 10.0729 51.8963 9.85417 52.2192C9.79687 52.3026 9.72917 52.4119 9.64583 52.5526C9.57292 52.7297 9.48437 52.8963 9.375 53.0526C9.26042 53.2036 9.11458 53.2817 8.9375 53.2817ZM18.5208 33.1567C17.9375 33.1151 17.3646 33.0942 16.8125 33.0942C15.5885 33.0942 14.4271 33.1932 13.3333 33.3859C12.2344 33.5682 11.1562 33.7713 10.1042 33.9901C9.88021 34.0317 9.72917 34.0942 9.64583 34.1776C9.57292 34.2505 9.54167 34.3234 9.54167 34.4067C9.54167 34.4797 9.56771 34.5734 9.625 34.6984C9.69271 34.8234 9.83854 34.9797 10.0625 35.1567C11.9896 36.6567 13.1094 38.7192 13.4167 41.3442L13.4375 41.8234L18.8125 33.1984L18.5208 33.1567Z" fill="#FBFAF3"/>
<path d="M55.9083 33.6775C55.9916 33.7348 56.0437 33.7973 56.0749 33.865C56.0854 33.9484 56.0593 34.0421 55.9916 34.1359C55.9187 34.2348 55.8458 34.3234 55.7624 34.4067L55.6583 34.5109C53.6583 36.7609 51.5385 38.4588 49.3041 39.5942C47.0801 40.7296 44.627 41.3494 41.9499 41.4484C41.726 41.4484 41.5385 41.4484 41.3874 41.4484C39.6895 41.4484 38.1895 41.115 36.8874 40.4484C36.4708 40.24 36.1374 40.1359 35.8874 40.1359C35.6374 40.1359 35.4499 40.2192 35.3249 40.3859C35.1999 40.5629 35.0854 40.7921 34.9708 41.0734C34.252 43.1567 33.3666 45.5317 32.3249 48.1984L32.1999 48.5109C32.1062 48.7869 31.9916 49.0525 31.8666 49.3025C31.7416 49.5629 31.5697 49.6984 31.3458 49.6984C31.2208 49.6984 31.1062 49.6775 30.9916 49.6359C30.6166 49.4275 30.4499 49.1411 30.4916 48.7817C30.5333 48.4171 30.6322 48.0317 30.7833 47.615L30.8874 47.3025C31.1374 46.5786 31.3979 45.8494 31.6583 45.115C31.9239 44.3755 32.1947 43.6359 32.4708 42.8859L33.0333 41.3442C33.1062 41.1879 33.1739 41.0317 33.2416 40.865C33.2989 40.7088 33.3666 40.5577 33.4499 40.4067C33.6739 39.8494 33.877 39.2921 34.0541 38.7192C34.2208 38.1359 34.2572 37.5004 34.1583 36.8025C34.1062 36.4015 34.1531 36.0525 34.3041 35.7609C34.4604 35.4588 34.6166 35.214 34.7833 35.0317C35.9604 33.7557 36.9187 32.3182 37.6583 30.7192C38.3926 29.1254 39.1166 27.5265 39.8249 25.9275C40.5437 24.2192 41.3562 22.5473 42.2624 20.9067C43.1635 19.2713 44.0593 17.6515 44.9499 16.0525C45.4083 15.2765 45.8666 14.5004 46.3249 13.7192C46.7833 12.9432 47.2676 12.1775 47.7833 11.4275C47.9083 11.2609 48.0437 11.0213 48.1999 10.6984C48.3666 10.365 48.601 10.1984 48.9083 10.1984C49.0333 10.1984 49.1791 10.2765 49.3458 10.4275C49.5645 10.5942 49.7051 10.7817 49.7624 10.99C49.8562 11.4067 49.7312 11.7609 49.3874 12.0525C49.0385 12.3442 48.752 12.615 48.5333 12.865C47.9499 13.49 47.3926 14.1775 46.8666 14.9275C46.0437 16.1254 45.3093 17.4015 44.6583 18.7609C44.002 20.1098 43.377 21.4588 42.7833 22.8025C42.476 23.4588 42.1635 24.1098 41.8458 24.7609C41.5385 25.4171 41.2416 26.0629 40.9499 26.6984C40.7676 27.0629 40.5958 27.4223 40.4291 27.7817C40.2729 28.1463 40.1374 28.5004 40.0124 28.8442C39.9551 28.9692 39.8874 29.1984 39.8041 29.5317C39.7312 29.8546 39.6479 30.1567 39.5541 30.4484C39.4551 30.7296 39.3458 30.8963 39.2208 30.9484L41.3666 29.9275C42.0854 29.5838 42.7885 29.2504 43.4708 28.9275C44.1635 28.5942 44.8458 28.2817 45.5124 27.99C45.7885 27.865 46.0854 27.7765 46.4083 27.7192C46.7416 27.6515 47.0593 27.589 47.3666 27.5317C47.4916 27.5057 47.6062 27.4848 47.7208 27.4692C47.8301 27.4588 47.9499 27.4484 48.0749 27.4484C48.6687 27.4484 49.1062 27.6984 49.3874 28.1984C49.5124 28.4067 49.5541 28.6567 49.5124 28.9484C49.4812 29.2296 49.4135 29.4432 49.3041 29.5942C49.1791 29.7504 49.0437 29.8234 48.9083 29.8234C48.7937 29.7973 48.7416 29.7192 48.7416 29.5942V29.49C48.726 29.339 48.7051 29.2296 48.6791 29.1567C48.6218 29.0057 48.5124 28.8859 48.3458 28.8025C48.1895 28.7088 48.0385 28.6463 47.8874 28.615C47.5801 28.615 47.2833 28.6775 46.9916 28.8025C46.7104 28.9275 46.4343 29.0682 46.1583 29.2192C46.0593 29.2765 45.9604 29.3234 45.8666 29.365C45.7833 29.3963 45.7051 29.4223 45.6374 29.4484C44.7885 29.8234 43.9604 30.1984 43.1583 30.5734C41.6583 31.2973 40.1687 32.1254 38.6999 33.0525C38.2937 33.3025 37.9968 33.6254 37.8041 34.0109C37.6218 34.4015 37.4551 34.7921 37.3041 35.1775C37.2468 35.3859 37.1843 35.589 37.1166 35.7817C37.0437 35.964 36.9551 36.1463 36.8458 36.3234C36.8041 36.4223 36.7624 36.5213 36.7208 36.615C36.6791 36.714 36.6479 36.8129 36.6374 36.9067C36.5801 37.0317 36.5385 37.1359 36.5124 37.2192C36.0385 38.4171 35.9916 39.2765 36.3666 39.8025C36.7676 40.3286 37.7416 40.6879 39.2833 40.8859C40.0176 40.9796 40.7312 41.0317 41.4291 41.0317C44.1062 41.0317 46.6374 40.3702 49.0124 39.0525C51.3145 37.7765 53.3301 36.1254 55.0541 34.0942C55.0801 34.0525 55.127 33.99 55.1999 33.9067C55.252 33.8129 55.3145 33.7296 55.3874 33.6567C55.4708 33.5734 55.5437 33.5317 55.6166 33.5317C55.6843 33.5317 55.7833 33.5838 55.9083 33.6775Z" fill="#FBFAF3"/>
<path d="M74.1913 32.49C74.3163 32.5212 74.3892 32.5421 74.4205 32.5525C74.4882 32.6775 74.4309 32.8442 74.2538 33.0525C71.6809 35.7504 68.5455 38.1254 64.8371 40.1775L64.5871 40.2817C64.4621 40.391 64.3163 40.4796 64.1496 40.5525C63.983 40.6202 63.8163 40.6567 63.6496 40.6567C63.3996 40.6567 63.134 40.5421 62.858 40.3233C62.5246 40.0317 62.3632 39.7556 62.3788 39.49C62.3892 39.2296 62.4465 38.9431 62.5455 38.6358C62.5715 38.5942 62.5975 38.5473 62.6288 38.49C62.6548 38.4379 62.6705 38.3858 62.6705 38.3442C62.8892 37.5421 63.1705 36.7712 63.5038 36.0317C63.8475 35.2973 64.1965 34.5889 64.5455 33.9067C64.5455 33.9067 64.6184 33.7608 64.7746 33.4692C64.9413 33.1671 65.1132 32.8442 65.2955 32.5108C65.4882 32.1671 65.6288 31.9275 65.7121 31.8025C65.7121 31.7921 65.759 31.7192 65.858 31.5942C66.0767 31.2608 66.2746 30.9223 66.4413 30.5733C66.608 30.2296 66.6496 29.9483 66.5663 29.74C66.5246 29.615 66.4465 29.5317 66.3371 29.49C66.2642 29.4639 66.2017 29.4483 66.1496 29.4483C65.8996 29.4483 65.6184 29.5889 65.3163 29.865C65.0246 30.1462 64.8788 30.2817 64.8788 30.2817C64.6965 30.4796 64.5142 30.7296 64.3371 31.0317C64.1705 31.3233 64.0715 31.6567 64.0455 32.0317V32.1775C64.0455 32.2921 64.035 32.4067 64.0246 32.5317C64.0246 32.6567 63.983 32.7192 63.8996 32.7192C63.8684 32.7192 63.8163 32.6983 63.733 32.6567C63.6496 32.615 63.5298 32.5212 63.3788 32.365L63.2746 32.2608L63.0455 32.5317C62.9621 32.5733 62.884 32.6358 62.8163 32.7192C62.759 32.7921 62.7121 32.8546 62.6705 32.9067C62.3632 33.2296 62.0767 33.5473 61.8163 33.865C61.5507 34.1723 61.285 34.4796 61.0246 34.7817C60.41 35.4796 59.7955 36.1723 59.1705 36.865C58.5455 37.5473 57.8684 38.1879 57.1496 38.7817L56.8788 39.0108C56.6548 39.2192 56.4205 39.4171 56.1705 39.5942C55.9205 39.7608 55.6496 39.8442 55.358 39.8442C55.108 39.8442 54.8475 39.7556 54.5663 39.5733C54.0403 39.1983 53.7903 38.7608 53.8163 38.2608C53.8475 37.7608 53.9205 37.2764 54.0455 36.8025L54.0663 36.5733C54.6809 34.1723 55.7538 32.1098 57.2955 30.3858C58.3788 29.1931 59.6548 28.5942 61.1288 28.5942H61.233C61.5663 28.5942 61.8788 28.615 62.1705 28.6567C62.4725 28.6879 62.7017 28.7973 62.858 28.99C63.3007 29.6462 63.7225 29.9692 64.1288 29.9692C64.3215 29.9692 64.4934 29.9067 64.6496 29.7817C64.8007 29.6567 64.9673 29.5212 65.1496 29.365L65.2538 29.2608C65.4725 29.0421 65.7225 28.865 66.0038 28.74C66.1288 28.6879 66.2434 28.6462 66.358 28.615C66.4673 28.5733 66.5767 28.5525 66.6913 28.5525C66.858 28.5525 67.0298 28.615 67.2121 28.74C67.4048 28.9067 67.4934 29.0837 67.483 29.2608C67.4673 29.4431 67.41 29.6306 67.3163 29.8233C66.8996 30.7556 66.4725 31.6671 66.0455 32.5525C65.6132 33.4275 65.1913 34.3025 64.7746 35.1775L64.0871 36.615C63.9309 36.8962 63.8007 37.1879 63.6913 37.49C63.5767 37.7817 63.4725 38.0681 63.3788 38.3442L63.1913 38.9067C63.0923 39.1567 63.0767 39.3442 63.1496 39.4692C63.2017 39.5421 63.2798 39.6046 63.3788 39.6567C63.4465 39.6879 63.535 39.6983 63.6496 39.6983C63.8996 39.6983 64.1809 39.6254 64.5038 39.4692C64.8215 39.3181 65.0455 39.2087 65.1705 39.1358C65.9725 38.5837 66.7642 38.0264 67.5455 37.4692C68.3215 36.9014 69.0715 36.3389 69.7955 35.7817C70.0455 35.615 70.2798 35.4431 70.5038 35.2608C70.7225 35.0681 70.9621 34.8806 71.2121 34.6983C71.3632 34.5733 71.5246 34.4431 71.6913 34.3025C71.858 34.1671 72.0246 34.0317 72.1913 33.9067C72.2746 33.8389 72.3475 33.7764 72.4205 33.7192C72.4882 33.6514 72.5767 33.5889 72.6913 33.5317C72.8163 33.4067 72.9465 33.2921 73.0871 33.1775C73.2382 33.0681 73.3892 32.9483 73.5455 32.8233L73.6913 32.74C73.7746 32.6983 73.858 32.6514 73.9413 32.5942C74.0246 32.5264 74.108 32.49 74.1913 32.49ZM63.233 31.0525C63.483 30.7921 63.4673 30.4692 63.1913 30.0942C62.8684 29.6671 62.483 29.4483 62.0246 29.4483C61.983 29.4483 61.9309 29.4483 61.8788 29.4483C61.2538 29.5733 60.7017 29.7764 60.233 30.0525C59.1184 30.7087 58.2225 31.5212 57.5455 32.49C56.8788 33.4639 56.2955 34.4223 55.7955 35.365C55.7538 35.4796 55.6965 35.5837 55.6288 35.6775C55.5715 35.7764 55.5142 35.8754 55.4621 35.9692C55.3059 36.2087 55.1705 36.4483 55.0455 36.6983C54.9205 36.9483 54.8267 37.2192 54.7538 37.5108C54.7278 37.6358 54.7121 37.865 54.7121 38.1983C54.7121 38.5212 54.8059 38.7556 54.983 38.9067C55.0507 39.0056 55.1496 39.0525 55.2746 39.0525C55.3684 39.0525 55.4934 39.0212 55.6496 38.9483C56.7173 38.2712 57.6705 37.4692 58.5038 36.5525C59.3475 35.6254 60.16 34.6775 60.9413 33.7192C61.3163 33.2764 61.6913 32.8337 62.0663 32.3858C62.4413 31.9275 62.8267 31.4848 63.233 31.0525Z" fill="#FBFAF3"/>
<path d="M85.9198 33.1567L85.9614 33.3025C85.9875 33.4171 85.8833 33.5004 85.6489 33.5525C85.4093 33.5942 85.2166 33.6306 85.0656 33.6567C84.9093 33.6723 84.8208 33.6775 84.7948 33.6775C84.4458 33.7921 84.0968 33.8858 83.7531 33.9692C83.4041 34.0525 83.05 34.1567 82.6906 34.2817C81.3677 34.6879 80.2375 35.1254 79.2948 35.5942C78.5552 35.9692 77.8781 36.4067 77.2531 36.9067C76.6281 37.4067 76.2323 38.1723 76.0656 39.1983C75.701 41.0733 74.5864 42.8233 72.7114 44.4483C71.9927 45.0733 71.2531 45.3858 70.5031 45.3858C69.9771 45.3858 69.5239 45.2244 69.1489 44.9067C68.6489 44.4744 68.3989 43.9067 68.3989 43.1983C68.3989 42.5004 68.6646 41.8442 69.1906 41.2192C69.8468 40.3962 70.6177 39.6931 71.5031 39.0942C72.3937 38.5004 73.2948 37.9587 74.2114 37.4692C74.7948 37.1775 75.1073 36.8181 75.1489 36.3858C75.201 35.9587 75.0083 35.4067 74.5656 34.74C74.3833 34.5212 74.2166 34.2921 74.0656 34.0525C73.9093 33.8025 73.7635 33.5525 73.6281 33.3025L73.3573 32.865C72.7896 31.9379 72.7896 31.1879 73.3573 30.615C75.2843 28.6567 77.701 27.5942 80.6073 27.4275H80.7948C81.4302 27.4275 81.9302 27.6254 82.2948 28.0108C82.6698 28.4431 82.7791 29.0212 82.6281 29.74C82.4458 30.49 81.9823 31.1462 81.2323 31.6983C81.1906 31.7556 81.1177 31.8129 81.0239 31.865C80.9406 31.9067 80.8468 31.9275 80.7531 31.9275C80.6541 31.9275 80.5448 31.8806 80.4198 31.7817C80.2635 31.6723 80.1958 31.5525 80.2114 31.4275C80.2375 31.3025 80.2948 31.1567 80.3781 30.99C80.5291 30.7139 80.6698 30.4431 80.7948 30.1775C80.9302 29.9171 81.076 29.6567 81.2323 29.4067C81.3156 29.2556 81.3677 29.1098 81.3989 28.9692C81.4406 28.8181 81.3989 28.6358 81.2739 28.4275C81.1177 28.2087 80.9041 28.0942 80.6281 28.0942C80.5864 28.0942 80.5031 28.1098 80.3781 28.1358H80.2531C77.8468 28.3858 75.925 29.2973 74.4823 30.865C74.0083 31.3962 74.0708 32.0108 74.6698 32.7192C74.9875 33.0942 75.2843 33.5056 75.5656 33.9483C75.8416 34.4223 76.1073 34.8181 76.3573 35.1358C76.6073 35.4431 76.9302 35.5942 77.3364 35.5942C77.5552 35.5942 77.8364 35.5212 78.1698 35.365C79.1125 34.9483 80.076 34.5837 81.0656 34.2608C82.05 33.9275 82.9823 33.6358 83.8573 33.3858C84.0083 33.3337 84.2375 33.2712 84.5448 33.1983C84.8625 33.1306 85.1593 33.0942 85.4406 33.0942C85.5916 33.0942 85.701 33.1098 85.7739 33.1358C85.8573 33.1514 85.9041 33.1567 85.9198 33.1567ZM71.5239 44.3858C73.5239 43.3285 74.7427 41.3754 75.1906 38.5317L74.9614 38.4067C74.9458 38.5212 74.8156 38.6462 74.5656 38.7817C74.3156 38.9067 74.0864 39.0264 73.8781 39.1358C73.6281 39.2608 73.4823 39.3442 73.4406 39.3858C72.8312 39.8129 72.2896 40.2296 71.8156 40.6358L71.5656 40.8442C71.1646 41.2035 70.7479 41.615 70.3156 42.0733C69.8729 42.5317 69.6229 43.0212 69.5656 43.5525C69.5396 43.8858 69.6177 44.1462 69.7948 44.3442C69.9771 44.5212 70.2427 44.615 70.5864 44.615C70.7843 44.615 70.9614 44.5837 71.1281 44.5317C71.2948 44.4744 71.4302 44.4275 71.5239 44.3858Z" fill="#FBFAF3"/>
<path d="M107.87 34.0525C108.048 34.4171 107.975 34.8181 107.641 35.2608C107.318 35.7087 107.037 36.0837 106.787 36.3858C106.631 36.5421 106.537 36.6515 106.495 36.7192C103.938 39.9952 101.12 42.1775 98.0371 43.2608C97.8132 43.3285 97.5788 43.3962 97.3288 43.4692C97.0788 43.5525 96.8132 43.5942 96.5371 43.5942C95.9954 43.5942 95.4798 43.391 94.9954 42.99C94.4954 42.5837 94.2038 42.1254 94.1204 41.615C94.0371 41.0994 93.9954 40.5577 93.9954 39.99C94.0215 38.7973 94.235 37.6931 94.6413 36.6775C95.0579 35.6671 95.5007 34.6671 95.9746 33.6775L96.2871 33.0525C96.3548 32.9275 96.4225 32.74 96.4954 32.49C96.5788 32.24 96.5267 32.0421 96.3496 31.8858C96.2246 31.7921 96.0788 31.74 95.9121 31.74C95.5371 31.74 95.0892 31.9379 94.5788 32.3233C94.0632 32.7139 93.6048 33.0942 93.2038 33.4692L93.1204 33.5317C92.8288 33.7817 92.5475 34.0525 92.2871 34.3442C92.0215 34.6358 91.7663 34.9171 91.5163 35.1775C91.36 35.3337 91.2038 35.49 91.0371 35.6567C90.8809 35.8233 90.7298 35.99 90.5788 36.1567L89.7871 36.9483C89.3132 37.4223 88.834 37.9067 88.3496 38.4067C87.8757 38.8962 87.3913 39.3754 86.8913 39.8442C86.7507 39.9952 86.5892 40.1254 86.4121 40.24C86.2298 40.3494 86.0267 40.4067 85.8079 40.4067C85.584 40.4067 85.36 40.3285 85.1413 40.1775C84.7663 39.9535 84.5579 39.6931 84.5163 39.3858C84.4642 39.0681 84.4434 38.7348 84.4538 38.3858C84.5371 36.8598 84.8236 35.4067 85.3079 34.0317C85.7923 32.6567 86.2975 31.3025 86.8288 29.9692C87.0215 29.5264 87.3913 28.7921 87.9329 27.7608C88.4746 26.7348 89.11 25.5525 89.8496 24.2192C90.584 22.8754 91.36 21.4796 92.1829 20.0317C93.0163 18.5733 93.8132 17.1879 94.5788 15.865C95.3392 14.5473 96.0007 13.3858 96.5579 12.3858C97.1257 11.3754 97.5371 10.6462 97.7871 10.1983C98.1621 9.54728 98.5423 8.90145 98.9329 8.26082C99.334 7.62541 99.7663 7.00561 100.225 6.40666C100.376 6.21395 100.584 5.91707 100.85 5.51082C101.126 5.10978 101.433 4.75041 101.766 4.42749C102.11 4.09416 102.443 3.95874 102.766 4.01082C103.11 4.04207 103.277 4.19832 103.266 4.48999C103.266 4.77124 103.188 5.08374 103.037 5.42749C102.829 5.85978 102.584 6.27645 102.308 6.67749C102.042 7.08374 101.87 7.33374 101.787 7.42749C101.271 8.09416 100.61 9.07332 99.8079 10.365C99.0007 11.6567 98.1204 13.1306 97.1621 14.7817C96.2142 16.4379 95.2507 18.1514 94.2663 19.9275C93.2767 21.6931 92.3496 23.4223 91.4746 25.115C90.5996 26.7973 89.8288 28.3337 89.1621 29.7192C88.5059 31.0942 88.0423 32.1931 87.7663 33.0108C87.459 33.8598 87.1204 34.7139 86.7454 35.5733C86.3704 36.4223 86.0996 37.2973 85.9329 38.1983C85.8757 38.5212 85.9121 38.74 86.0371 38.865C86.1048 38.9379 86.2038 38.9692 86.3288 38.9692C86.4538 38.9692 86.6204 38.9379 86.8288 38.865C87.1204 38.714 87.3757 38.5265 87.5996 38.3025C87.834 38.0837 88.0475 37.8442 88.2454 37.5942C88.3288 37.5004 88.4121 37.4015 88.4954 37.3025C88.5788 37.1931 88.6725 37.089 88.7871 36.99C88.9538 36.8129 89.1204 36.6306 89.2871 36.4483C89.4642 36.2556 89.6465 36.0629 89.8288 35.865C90.0215 35.6567 90.2246 35.4431 90.4329 35.2192C90.6517 35.0004 90.86 34.7921 91.0579 34.5942L91.1829 34.4692C91.834 33.8181 92.5059 33.1775 93.2038 32.5525C93.8965 31.9171 94.6465 31.3442 95.4538 30.8442C95.6048 30.7348 95.7715 30.6254 95.9538 30.5108C96.1465 30.4014 96.3548 30.3442 96.5788 30.3442C96.8288 30.3442 97.0632 30.4379 97.2871 30.615C97.9121 31.0629 98.0788 31.7348 97.7871 32.6358C97.5632 33.3858 97.3288 34.1254 97.0788 34.8442C96.8288 35.5525 96.5788 36.24 96.3288 36.9067L96.1204 37.4483C95.9225 37.99 95.7298 38.5525 95.5371 39.1358C95.3548 39.7087 95.2298 40.3025 95.1621 40.9275C95.1048 41.6202 95.2298 42.1358 95.5371 42.4692C95.8288 42.7608 96.2663 42.9067 96.8496 42.9067C96.9746 42.9067 97.11 42.9067 97.2663 42.9067C97.9017 42.8337 98.4954 42.6827 99.0371 42.4483C99.5788 42.2087 100.058 41.9535 100.475 41.6775C101.876 40.8025 103.141 39.7296 104.266 38.4483C104.6 38.1046 104.896 37.7296 105.162 37.3233C105.438 36.9223 105.704 36.5265 105.954 36.1358C106.131 35.8598 106.308 35.5837 106.475 35.3025C106.652 35.0264 106.834 34.7504 107.016 34.4692C107.084 34.4014 107.188 34.3025 107.329 34.1775C107.464 34.0525 107.6 33.99 107.725 33.99C107.777 33.99 107.829 34.0108 107.87 34.0525Z" fill="#FBFAF3"/>
</svg>
